<?xml version="1.0" encoding="utf-8"?>
<!-- Generator: Adobe Illustrator 19.1.0, SVG Export Plug-In . SVG Version: 6.00 Build 0)  -->
<!DOCTYPE svg PUBLIC "-//W3C//DTD SVG 1.1//EN" "http://www.w3.org/Graphics/SVG/1.1/DTD/svg11.dtd">
<svg version="1.1" id="Ebene_1" xmlns="http://www.w3.org/2000/svg" xmlns:xlink="http://www.w3.org/1999/xlink" x="0px" y="0px"
	 viewBox="0 0 332.271027 98.805664" style="enable-background:new 0 0 332.271027 98.805664;" xml:space="preserve">
<style type="text/css">
	.st0{fill:#E52821;}
</style>
<g>
	<path d="M139.416534,51.231934c0.271484-0.560547,0.556641-1.112793,0.854004-1.657227
		c0.297363-0.543945,0.60791-1.087891,0.931152-1.631836l11.373047-19.558594
		c0.339844-0.577637,0.764648-0.935059,1.274902-1.071289c0.509766-0.135742,1.00293-0.203613,1.479004-0.203613h6.527832
		l-4.589844,37.152832h-7.292969l2.601074-21.623535c0.050781-0.458984,0.131348-0.964355,0.242188-1.51709
		c0.110352-0.552246,0.233398-1.125977,0.369629-1.721191l-11.168945,19.175293
		c-0.340332,0.578125-0.782227,1.007812-1.326172,1.288086s-1.13916,0.420898-1.784668,0.420898h-1.12207
		c-0.646484,0-1.211426-0.144531-1.695801-0.433594c-0.484863-0.289062-0.820312-0.713867-1.007324-1.275391l-6.527832-19.226562
		c-0.034668,0.578125-0.063965,1.13916-0.089355,1.683105c-0.025391,0.544434-0.063965,1.037109-0.114746,1.479004
		l-2.550301,21.750977h-7.34375l4.589844-37.127441h6.324226c0.356934,0,0.671387,0,0.943359,0s0.51416,0.038574,0.726562,0.115234
		c0.212402,0.076172,0.395508,0.199707,0.54834,0.370117c0.15332,0.169922,0.280762,0.416504,0.382812,0.739746l6.527832,19.579102
		C138.855499,49.011719,139.161652,50.109375,139.416534,51.231934z"/>
	<path d="M184.373566,64.262207h-4.233398c-0.493164,0-0.905273-0.063477-1.236816-0.191406
		c-0.331543-0.126953-0.595215-0.300781-0.790527-0.522461c-0.195801-0.220703-0.331543-0.484375-0.408203-0.790039
		c-0.076172-0.306641-0.114746-0.637695-0.114746-0.995117v-1.886719c-1.087891,1.496094-2.294922,2.668945-3.620605,3.518555
		c-1.326172,0.850586-2.788574,1.275391-4.38623,1.275391c-0.952148,0-1.870117-0.191406-2.753906-0.573242
		c-0.884277-0.382812-1.666504-0.960938-2.346191-1.734375c-0.680176-0.773438-1.224121-1.759766-1.631836-2.958008
		c-0.408203-1.198242-0.612305-2.614258-0.612305-4.246094c0-2.396484,0.4375-4.669922,1.313477-6.820801
		c0.875488-2.150391,2.099609-4.032715,3.671875-5.648438c1.572266-1.614746,3.438477-2.897949,5.597168-3.850098
		c2.15918-0.952148,4.530273-1.428223,7.114746-1.428223c1.257812,0,2.532715,0.085449,3.825195,0.254883
		c1.291992,0.17041,2.566406,0.476074,3.825195,0.917969L184.373566,64.262207z M172.745148,58.42334
		c0.577637,0,1.138672-0.216797,1.683105-0.650391c0.543457-0.433594,1.058105-1.024414,1.54248-1.772461
		s0.930664-1.623047,1.338867-2.626953c0.407715-1.00293,0.756348-2.073242,1.04541-3.212402l0.917969-7.318359h-0.458984
		c-1.291992,0-2.469238,0.289062-3.531738,0.866699c-1.0625,0.578125-1.976074,1.364258-2.741211,2.358887
		s-1.355957,2.150879-1.772461,3.468262s-0.624512,2.723633-0.624512,4.219727c0,0.850586,0.067871,1.572266,0.204102,2.167969
		c0.135742,0.594727,0.318848,1.075195,0.54834,1.44043s0.500977,0.633789,0.815918,0.802734
		C172.026886,58.338379,172.371124,58.42334,172.745148,58.42334z"/>
	<path d="M200.183136,37.819336l-1.989258,16.778809c-0.03418,0.271484-0.05957,0.522461-0.076172,0.751953
		c-0.017578,0.229492-0.026367,0.446289-0.026367,0.650391c0,0.901367,0.157227,1.530273,0.472656,1.886719
		c0.313477,0.357422,0.786133,0.536133,1.415039,0.536133c0.526367,0,1.083984-0.157227,1.669922-0.47168
		c0.586914-0.314453,1.151367-0.756836,1.696289-1.326172c0.542969-0.569336,1.048828-1.262695,1.516602-2.078125
		c0.467773-0.816406,0.854492-1.725586,1.160156-2.728516l1.708984-13.999512h7.905273l-3.213867,26.442871h-4.02832
		c-1.870117,0-2.805664-0.867188-2.805664-2.600586v-1.683594c-1.274414,1.598633-2.643555,2.780273-4.105469,3.544922
		s-2.983398,1.147461-4.564453,1.147461c-0.985352,0-1.890625-0.178711-2.71582-0.535156
		c-0.824219-0.357422-1.538086-0.879883-2.141602-1.568359s-1.071289-1.538086-1.402344-2.549805
		c-0.332031-1.011719-0.49707-2.171875-0.49707-3.481445c0-0.305664,0.012695-0.620117,0.038086-0.943359
		c0.025391-0.322266,0.054688-0.654297,0.088867-0.994141l1.989258-16.778809H200.183136z"/>
	<path d="M219.587433,45.69873h12.801758l-0.816406,6.170898h-12.75L219.587433,45.69873z"/>
	<path d="M256.052277,51.231934c0.271484-0.560547,0.556641-1.112793,0.854492-1.657227
		c0.296875-0.543945,0.607422-1.087891,0.930664-1.631836l11.373047-19.558594
		c0.339844-0.577637,0.764648-0.935059,1.274414-1.071289c0.510742-0.135742,1.00293-0.203613,1.479492-0.203613h6.52832
		l-4.59082,37.152832h-7.292969l2.601562-21.623535c0.050781-0.458984,0.130859-0.964355,0.242188-1.51709
		c0.110352-0.552246,0.233398-1.125977,0.369141-1.721191l-11.167969,19.175293
		c-0.34082,0.578125-0.782227,1.007812-1.326172,1.288086s-1.139648,0.420898-1.785156,0.420898h-1.12207
		c-0.646484,0-1.210938-0.144531-1.695312-0.433594c-0.485352-0.289062-0.820312-0.713867-1.007812-1.275391l-6.527344-19.226562
		c-0.035156,0.578125-0.064453,1.13916-0.089844,1.683105c-0.025391,0.544434-0.063477,1.037109-0.114258,1.479004
		l-2.550781,21.750977h-7.34375l4.589844-37.127441h6.324219c0.357422,0,0.671875,0,0.943359,0
		c0.272461,0,0.514648,0.038574,0.726562,0.115234c0.212891,0.076172,0.395508,0.199707,0.548828,0.370117
		c0.15332,0.169922,0.280273,0.416504,0.382812,0.739746l6.527344,19.579102
		C255.49173,49.011719,255.797394,50.109375,256.052277,51.231934z"/>
	<path d="M301.008331,64.262207h-4.232422c-0.493164,0-0.905273-0.063477-1.237305-0.191406
		c-0.331055-0.126953-0.594727-0.300781-0.790039-0.522461c-0.195312-0.220703-0.331055-0.484375-0.408203-0.790039
		c-0.076172-0.306641-0.114258-0.637695-0.114258-0.995117v-1.886719c-1.088867,1.496094-2.294922,2.668945-3.621094,3.518555
		c-1.326172,0.850586-2.788086,1.275391-4.385742,1.275391c-0.953125,0-1.871094-0.191406-2.754883-0.573242
		c-0.883789-0.382812-1.666016-0.960938-2.345703-1.734375s-1.223633-1.759766-1.631836-2.958008
		s-0.612305-2.614258-0.612305-4.246094c0-2.396484,0.4375-4.669922,1.313477-6.820801
		c0.875-2.150391,2.099609-4.032715,3.671875-5.648438c1.572266-1.614746,3.438477-2.897949,5.597656-3.850098
		c2.158203-0.952148,4.530273-1.428223,7.114258-1.428223c1.257812,0,2.533203,0.085449,3.825195,0.254883
		c1.291992,0.17041,2.566406,0.476074,3.825195,0.917969L301.008331,64.262207z M289.380402,58.42334
		c0.578125,0,1.138672-0.216797,1.683594-0.650391c0.543945-0.433594,1.057617-1.024414,1.542969-1.772461
		c0.484375-0.748047,0.930664-1.623047,1.337891-2.626953c0.408203-1.00293,0.756836-2.073242,1.045898-3.212402l0.917969-7.318359
		h-0.458984c-1.291992,0-2.469727,0.289062-3.53125,0.866699c-1.063477,0.578125-1.976562,1.364258-2.742188,2.358887
		c-0.764648,0.994629-1.355469,2.150879-1.771484,3.468262c-0.416992,1.317383-0.625,2.723633-0.625,4.219727
		c0,0.850586,0.067383,1.572266,0.204102,2.167969c0.135742,0.594727,0.318359,1.075195,0.547852,1.44043
		s0.501953,0.633789,0.816406,0.802734C288.662628,58.338379,289.006378,58.42334,289.380402,58.42334z"/>
	<path d="M316.817902,37.819336l-1.988281,16.778809c-0.03418,0.271484-0.060547,0.522461-0.077148,0.751953
		s-0.025391,0.446289-0.025391,0.650391c0,0.901367,0.157227,1.530273,0.47168,1.886719
		c0.314453,0.357422,0.786133,0.536133,1.416016,0.536133c0.526367,0,1.083008-0.157227,1.669922-0.47168
		c0.585938-0.314453,1.151367-0.756836,1.695312-1.326172s1.049805-1.262695,1.517578-2.078125
		c0.467773-0.816406,0.854492-1.725586,1.160156-2.728516l1.708984-13.999512h7.904297l-3.212891,26.442871h-4.029297
		c-1.870117,0-2.804688-0.867188-2.804688-2.600586v-1.683594c-1.274414,1.598633-2.643555,2.780273-4.105469,3.544922
		s-2.983398,1.147461-4.564453,1.147461c-0.986328,0-1.891602-0.178711-2.71582-0.535156
		c-0.824219-0.357422-1.539062-0.879883-2.141602-1.568359c-0.603516-0.688477-1.071289-1.538086-1.402344-2.549805
		c-0.332031-1.011719-0.498047-2.171875-0.498047-3.481445c0-0.305664,0.012695-0.620117,0.039062-0.943359
		c0.025391-0.322266,0.054688-0.654297,0.088867-0.994141l1.989258-16.778809H316.817902z"/>
</g>
<g>
	<g>
		<g>
			<path class="st0" d="M44.657742,98.805664l-0.604492-0.266602c-19.719727-8.684082-32.337891-21.55957-38.576172-39.36084
				C-0.001927,43.543457-0.00095,26.162109,0.000026,9.352539V7.608398l1.029785-0.339844
				C15.644069,2.445312,30.322781,0,44.657742,0S73.67141,2.445312,88.286156,7.268555l1.029785,0.339844v1.744141
				c0.000977,16.80957,0.001953,34.190918-5.477051,49.825684c-6.238281,17.80127-18.856934,30.676758-38.576656,39.36084
				L44.657742,98.805664z M3.000026,9.78125C2.999049,42.835449,3.171413,76.930176,44.657742,95.524902
				C86.144554,76.930176,86.316917,42.835449,86.315941,9.781738C72.346214,5.28125,58.336452,3,44.657742,3
				S16.969265,5.28125,3.000026,9.78125z"/>
		</g>
	</g>
	<path class="st0" d="M19.49996,36.110371h17.610533V18.499838h15.094742v17.610533h17.610531v15.094742H52.205235v17.610531
		H37.110493V51.205112H19.49996V36.110371z"/>
</g>
</svg>
