<?xml version="1.0" encoding="utf-8"?>
<!-- Generator: Adobe Illustrator 19.1.0, SVG Export Plug-In . SVG Version: 6.00 Build 0)  -->
<!DOCTYPE svg PUBLIC "-//W3C//DTD SVG 1.1//EN" "http://www.w3.org/Graphics/SVG/1.1/DTD/svg11.dtd">
<svg version="1.1" id="Ebene_1" xmlns="http://www.w3.org/2000/svg" xmlns:xlink="http://www.w3.org/1999/xlink" x="0px" y="0px"
	 viewBox="0 0 207.808228 46.550446" style="enable-background:new 0 0 207.808228 46.550446;" xml:space="preserve">
<style type="text/css">
	.st0{fill:#E52620;}
	.st1{fill:#FFFFFF;}
	.st2{fill:#010202;}
</style>
<g>
	<path class="st0" d="M18.468504,0c6.15616,0,12.312321,1.046547,18.468481,3.07808
		c0,14.405416,0.123123,29.672693-18.468481,37.86039C-0.123102,32.750774,0.000021,17.483496,0.000021,3.07808
		C6.156182,1.046547,12.312343,0,18.468504,0z"/>
	<path class="st1" d="M6.156182,14.774786h8.618626V6.156161h7.387392v8.618626h8.618626v7.387392h-8.618626v8.618626h-7.387392
		v-8.618626H6.156182V14.774786z"/>
</g>
<g>
	<path class="st2" d="M73.849739,5.21402c0,0.570312-0.084961,1.087891-0.255371,1.551758
		c-0.17041,0.464844-0.410645,0.861328-0.720215,1.189453c-0.30957,0.329102-0.679688,0.583008-1.11084,0.761719
		s-0.909668,0.268555-1.43457,0.268555c-0.518555,0-0.993164-0.089844-1.424316-0.268555s-0.801758-0.432617-1.11084-0.761719
		c-0.30957-0.328125-0.550781-0.724609-0.722656-1.189453C66.898567,6.30191,66.81263,5.784332,66.81263,5.21402
		c0-0.566406,0.085938-1.082031,0.258301-1.546875c0.171875-0.463867,0.413086-0.860352,0.722656-1.189453
		c0.309082-0.328125,0.679688-0.583008,1.11084-0.763672s0.905762-0.271484,1.424316-0.271484
		c0.524902,0,1.003418,0.089844,1.43457,0.268555s0.80127,0.433594,1.11084,0.764648
		c0.30957,0.330078,0.549805,0.727539,0.720215,1.191406C73.764778,4.131989,73.849739,4.647614,73.849739,5.21402z
		 M73.297005,5.21402c0-0.514648-0.071289-0.977539-0.213867-1.387695s-0.34375-0.757812-0.602539-1.042969
		c-0.259277-0.285156-0.571289-0.503906-0.936523-0.655273S70.773567,1.90152,70.328743,1.90152
		c-0.438477,0-0.839355,0.075195-1.202637,0.226562s-0.67627,0.370117-0.938965,0.655273s-0.46582,0.632812-0.610352,1.042969
		c-0.144043,0.410156-0.216309,0.873047-0.216309,1.387695c0,0.518555,0.072266,0.981445,0.216309,1.390625
		c0.144531,0.408203,0.347656,0.754883,0.610352,1.040039s0.575684,0.50293,0.938965,0.652344s0.76416,0.224609,1.202637,0.224609
		c0.444824,0,0.850098-0.075195,1.215332-0.224609s0.677246-0.367188,0.936523-0.652344
		c0.258789-0.285156,0.459961-0.631836,0.602539-1.040039C73.225716,6.195465,73.297005,5.732574,73.297005,5.21402z"/>
	<path class="st2" d="M76.009407,8.907379V4.258942l-0.730469-0.046875c-0.100586-0.006836-0.150879-0.049805-0.150879-0.129883
		V3.879059h0.881348V3.220856c0-0.294922,0.038086-0.554688,0.114746-0.779297s0.184082-0.411133,0.323242-0.560547
		s0.307129-0.261719,0.503418-0.336914c0.196777-0.074219,0.413086-0.112305,0.649414-0.112305
		c0.10791,0,0.216797,0.009766,0.326172,0.029297c0.109863,0.018555,0.206055,0.045898,0.289551,0.080078l-0.015625,0.240234
		c-0.003418,0.048828-0.036621,0.073242-0.099121,0.073242c-0.041504,0-0.098145-0.004883-0.169434-0.015625
		s-0.15918-0.015625-0.263672-0.015625c-0.17041,0-0.327637,0.025391-0.47168,0.075195
		c-0.144531,0.050781-0.269043,0.131836-0.373047,0.243164c-0.104492,0.111328-0.185547,0.255859-0.242676,0.435547
		c-0.057617,0.178711-0.085938,0.398438-0.085938,0.660156v0.641602h1.68457v0.370117h-1.674316v4.658203H76.009407z"/>
	<path class="st2" d="M79.848763,8.907379V4.258942l-0.730469-0.046875c-0.100586-0.006836-0.150879-0.049805-0.150879-0.129883
		V3.879059h0.881348V3.434723c0-0.321289,0.046875-0.609375,0.140625-0.865234
		c0.094238-0.256836,0.230469-0.474609,0.409668-0.65332c0.179199-0.179688,0.397461-0.317383,0.654785-0.413086
		s0.55127-0.144531,0.881348-0.144531c0.114746,0,0.233887,0.010742,0.357422,0.030273
		c0.123535,0.020508,0.227051,0.048828,0.310547,0.084961l-0.020996,0.25c-0.003418,0.035156-0.027832,0.052734-0.072754,0.052734
		c-0.038574,0-0.095215-0.005859-0.169922-0.018555c-0.074707-0.011719-0.169434-0.018555-0.28418-0.018555
		c-0.549316,0-0.973633,0.141602-1.272949,0.422852c-0.298828,0.282227-0.448242,0.710938-0.448242,1.289062v0.427734h3.041016
		v5.02832h-0.495605V4.249176h-2.535156v4.658203H79.848763z"/>
	<path class="st2" d="M89.160286,3.925934c0,0.072266-0.024414,0.138672-0.073242,0.198242l-3.25,4.391602h3.192871v0.391602
		h-3.79248V8.709137c0-0.058594,0.025879-0.123047,0.078125-0.193359l3.260254-4.407227h-3.166504V3.716949h3.750977V3.925934z"/>
	<path class="st2" d="M91.753059,1.927887c0,0.0625-0.013184,0.121094-0.039551,0.174805
		c-0.025879,0.053711-0.05957,0.101562-0.101562,0.143555c-0.041504,0.041016-0.090332,0.074219-0.145996,0.098633
		s-0.114746,0.036133-0.177246,0.036133c-0.062988,0-0.12207-0.011719-0.177734-0.036133s-0.104004-0.057617-0.145996-0.098633
		c-0.041504-0.041992-0.074707-0.089844-0.099121-0.143555S90.82972,1.990387,90.82972,1.927887
		s0.011719-0.123047,0.036133-0.180664c0.024414-0.056641,0.057617-0.106445,0.099121-0.148438
		c0.041992-0.041992,0.090332-0.074219,0.145996-0.098633s0.114746-0.037109,0.177734-0.037109
		c0.0625,0,0.121582,0.012695,0.177246,0.037109s0.104492,0.056641,0.145996,0.098633
		c0.041992,0.041992,0.075684,0.091797,0.101562,0.148438C91.739876,1.80484,91.753059,1.865387,91.753059,1.927887z
		 M91.533821,3.716949v5.19043h-0.495605v-5.19043H91.533821z"/>
	<path class="st2" d="M95.805794,3.632965c0.291992,0,0.5625,0.050781,0.811035,0.151367
		c0.248535,0.101562,0.464355,0.248047,0.646973,0.441406c0.182617,0.192383,0.325195,0.429688,0.427734,0.711914
		c0.102539,0.28125,0.153809,0.605469,0.153809,0.969727c0,0.077148-0.01123,0.128906-0.033691,0.157227
		c-0.022461,0.027344-0.058105,0.041016-0.106934,0.041016h-3.745605v0.099609c0,0.389648,0.04541,0.732422,0.135742,1.027344
		c0.090332,0.295898,0.219238,0.543945,0.385742,0.743164c0.166992,0.200195,0.368652,0.350586,0.605469,0.452148
		c0.236328,0.100586,0.500488,0.150391,0.792969,0.150391c0.260742,0,0.486816-0.02832,0.677734-0.085938
		c0.191406-0.056641,0.352539-0.121094,0.48291-0.192383s0.233887-0.135742,0.310059-0.193359
		c0.07666-0.057617,0.132324-0.085938,0.166992-0.085938c0.04541,0,0.080078,0.017578,0.104492,0.051758l0.135742,0.166992
		c-0.083496,0.104492-0.193848,0.202148-0.331543,0.291992c-0.137207,0.09082-0.290039,0.167969-0.458984,0.232422
		c-0.168457,0.064453-0.349609,0.116211-0.54248,0.154297s-0.386719,0.056641-0.581543,0.056641
		c-0.35498,0-0.678223-0.061523-0.970215-0.18457c-0.29248-0.124023-0.542969-0.303711-0.751953-0.540039
		c-0.209473-0.236328-0.371094-0.526367-0.485352-0.868164c-0.114258-0.342773-0.171387-0.735352-0.171387-1.176758
		c0-0.37207,0.053223-0.71582,0.15918-1.030273s0.259277-0.585938,0.458984-0.813477
		c0.200195-0.228516,0.445312-0.40625,0.73584-0.535156C95.107552,3.697418,95.437141,3.632965,95.805794,3.632965z
		 M95.813606,4.004059c-0.267578,0-0.507324,0.041016-0.71875,0.125c-0.211914,0.083008-0.39502,0.203125-0.549805,0.360352
		c-0.154297,0.15625-0.279297,0.34375-0.375,0.5625c-0.095703,0.219727-0.158691,0.464844-0.189941,0.736328h3.416992
		c0-0.27832-0.038574-0.52832-0.114746-0.749023c-0.07666-0.220703-0.184082-0.407227-0.323242-0.560547
		c-0.138672-0.15332-0.305176-0.270508-0.5-0.352539C96.264778,4.045074,96.049446,4.004059,95.813606,4.004059z"/>
	<path class="st2" d="M100.302376,1.317535v7.589844H99.80677V1.317535H100.302376z"/>
	<path class="st2" d="M103.259895,1.317535v7.589844h-0.495605V1.317535H103.259895z"/>
	<path class="st2" d="M107.532356,3.632965c0.291992,0,0.5625,0.050781,0.811035,0.151367
		c0.248535,0.101562,0.464355,0.248047,0.646973,0.441406c0.182617,0.192383,0.325195,0.429688,0.427734,0.711914
		c0.102051,0.28125,0.153809,0.605469,0.153809,0.969727c0,0.077148-0.011719,0.128906-0.03418,0.157227
		c-0.022461,0.027344-0.057617,0.041016-0.106445,0.041016h-3.745605v0.099609c0,0.389648,0.04541,0.732422,0.135742,1.027344
		c0.090332,0.295898,0.219238,0.543945,0.385742,0.743164c0.166992,0.200195,0.368652,0.350586,0.605469,0.452148
		c0.236328,0.100586,0.500488,0.150391,0.792969,0.150391c0.260742,0,0.486816-0.02832,0.677734-0.085938
		c0.191406-0.056641,0.352539-0.121094,0.48291-0.192383s0.233887-0.135742,0.310059-0.193359
		c0.07666-0.057617,0.132324-0.085938,0.166992-0.085938c0.04541,0,0.080078,0.017578,0.104492,0.051758l0.135742,0.166992
		c-0.083496,0.104492-0.193848,0.202148-0.331543,0.291992c-0.137207,0.09082-0.290039,0.167969-0.458984,0.232422
		c-0.168457,0.064453-0.349609,0.116211-0.54248,0.154297s-0.386719,0.056641-0.581543,0.056641
		c-0.35498,0-0.678223-0.061523-0.970215-0.18457c-0.29248-0.124023-0.542969-0.303711-0.751953-0.540039
		c-0.209473-0.236328-0.371094-0.526367-0.485352-0.868164c-0.114258-0.342773-0.171387-0.735352-0.171387-1.176758
		c0-0.37207,0.053223-0.71582,0.15918-1.030273s0.259277-0.585938,0.458984-0.813477
		c0.200195-0.228516,0.445312-0.40625,0.73584-0.535156C106.834114,3.697418,107.163704,3.632965,107.532356,3.632965z
		 M107.540169,4.004059c-0.267578,0-0.507324,0.041016-0.71875,0.125c-0.211914,0.083008-0.39502,0.203125-0.549805,0.360352
		c-0.154297,0.15625-0.279297,0.34375-0.375,0.5625c-0.095703,0.219727-0.158691,0.464844-0.189941,0.736328h3.416992
		c0-0.27832-0.038574-0.52832-0.114746-0.749023c-0.07666-0.220703-0.184082-0.407227-0.323242-0.560547
		c-0.138672-0.15332-0.305176-0.270508-0.5-0.352539C107.991341,4.045074,107.776009,4.004059,107.540169,4.004059z"/>
	<path class="st2" d="M114.245735,4.363434c-0.024414,0.048828-0.0625,0.073242-0.115234,0.073242
		c-0.038086,0-0.087891-0.021484-0.148438-0.06543c-0.060547-0.042969-0.140625-0.091797-0.240234-0.145508
		c-0.098633-0.053711-0.220703-0.102539-0.365234-0.146484c-0.143555-0.042969-0.320312-0.06543-0.529297-0.06543
		c-0.1875,0-0.358398,0.027344-0.513672,0.081055c-0.154297,0.053711-0.287109,0.125977-0.396484,0.21582
		s-0.194336,0.195312-0.255859,0.314453c-0.060547,0.120117-0.09082,0.246094-0.09082,0.37793
		c0,0.163086,0.041992,0.297852,0.125,0.405273c0.083984,0.107422,0.193359,0.199219,0.329102,0.276367
		c0.135742,0.076172,0.289062,0.141602,0.460938,0.197266c0.172852,0.055664,0.348633,0.111328,0.530273,0.166992
		c0.180664,0.055664,0.357422,0.117188,0.529297,0.18457c0.171875,0.068359,0.326172,0.152344,0.461914,0.25293
		c0.134766,0.101562,0.245117,0.224609,0.328125,0.371094c0.083984,0.145508,0.125,0.323242,0.125,0.532227
		c0,0.225586-0.041016,0.436523-0.12207,0.630859c-0.082031,0.194336-0.200195,0.363281-0.354492,0.505859
		c-0.155273,0.142578-0.345703,0.255859-0.571289,0.338867c-0.226562,0.083984-0.483398,0.125-0.772461,0.125
		c-0.365234,0-0.679688-0.057617-0.944336-0.173828c-0.264648-0.117188-0.500977-0.269531-0.708984-0.457031l0.120117-0.177734
		c0.016602-0.027344,0.036133-0.047852,0.056641-0.0625c0.021484-0.013672,0.050781-0.020508,0.088867-0.020508
		c0.044922,0,0.100586,0.02832,0.166992,0.083008c0.066406,0.056641,0.152344,0.116211,0.257812,0.180664
		c0.106445,0.064453,0.238281,0.124023,0.396484,0.179688s0.354492,0.083984,0.586914,0.083984
		c0.219727,0,0.412109-0.03125,0.579102-0.091797s0.306641-0.143555,0.417969-0.248047s0.195312-0.226562,0.25293-0.367188
		c0.056641-0.140625,0.085938-0.290039,0.085938-0.446289c0-0.173828-0.041992-0.318359-0.125-0.432617
		c-0.083984-0.115234-0.193359-0.212891-0.329102-0.291992c-0.135742-0.080078-0.289062-0.148438-0.461914-0.204102
		c-0.171875-0.055664-0.349609-0.111328-0.53125-0.166992c-0.182617-0.055664-0.360352-0.116211-0.532227-0.182617
		c-0.172852-0.06543-0.326172-0.149414-0.461914-0.25s-0.245117-0.223633-0.329102-0.368164
		c-0.083008-0.143555-0.125-0.324219-0.125-0.540039c0-0.183594,0.040039-0.361328,0.120117-0.53125
		c0.080078-0.170898,0.194336-0.320312,0.341797-0.449219s0.328125-0.231445,0.540039-0.307617s0.450195-0.115234,0.714844-0.115234
		c0.316406,0,0.59668,0.045898,0.841797,0.137695s0.470703,0.232422,0.675781,0.420898L114.245735,4.363434z"/>
	<path class="st2" d="M119.785774,5.568512v3.338867h-0.532227V1.525543h1.882812c0.852539,0,1.488281,0.165039,1.90918,0.493164
		c0.420898,0.329102,0.631836,0.811523,0.631836,1.448242c0,0.28125-0.048828,0.539062-0.146484,0.771484
		c-0.097656,0.233398-0.237305,0.4375-0.419922,0.613281s-0.402344,0.319336-0.660156,0.432617
		c-0.256836,0.113281-0.547852,0.1875-0.871094,0.22168c0.083984,0.052734,0.158203,0.12207,0.224609,0.208984l2.540039,3.192383
		h-0.463867c-0.055664,0-0.103516-0.010742-0.143555-0.03125s-0.079102-0.055664-0.117188-0.104492l-2.363281-2.994141
		c-0.05957-0.076172-0.123047-0.130859-0.19043-0.162109s-0.172852-0.046875-0.31543-0.046875H119.785774z M119.785774,5.172028
		h1.283203c0.326172,0,0.619141-0.039062,0.878906-0.117188c0.258789-0.078125,0.477539-0.19043,0.657227-0.335938
		c0.178711-0.146484,0.31543-0.322266,0.40918-0.527344s0.140625-0.436523,0.140625-0.693359
		c0-0.525391-0.171875-0.915039-0.515625-1.168945c-0.344727-0.253906-0.845703-0.380859-1.50293-0.380859h-1.350586V5.172028z"/>
	<path class="st2" d="M127.865852,3.632965c0.291985,0,0.562492,0.050781,0.810539,0.151367
		c0.249023,0.101562,0.464844,0.248047,0.647461,0.441406c0.182617,0.192383,0.325195,0.429688,0.427734,0.711914
		c0.102539,0.28125,0.15332,0.605469,0.15332,0.969727c0,0.077148-0.010742,0.128906-0.033203,0.157227
		c-0.022461,0.027344-0.058594,0.041016-0.107422,0.041016h-3.74511v0.099609c0,0.389648,0.044922,0.732422,0.135742,1.027344
		c0.089844,0.295898,0.21875,0.543945,0.385742,0.743164c0.166992,0.200195,0.368164,0.350586,0.605469,0.452148
		c0.236328,0.100586,0.5,0.150391,0.792969,0.150391c0.260735,0,0.48632-0.02832,0.677727-0.085938
		c0.191406-0.056641,0.352539-0.121094,0.482422-0.192383c0.130859-0.071289,0.234375-0.135742,0.310547-0.193359
		s0.131836-0.085938,0.166992-0.085938c0.044922,0,0.080078,0.017578,0.104492,0.051758l0.135742,0.166992
		c-0.083984,0.104492-0.194336,0.202148-0.332031,0.291992c-0.136719,0.09082-0.290039,0.167969-0.458984,0.232422
		c-0.167969,0.064453-0.349609,0.116211-0.541992,0.154297c-0.193359,0.038086-0.386719,0.056641-0.582024,0.056641
		c-0.354492,0-0.677734-0.061523-0.969727-0.18457c-0.292969-0.124023-0.542969-0.303711-0.751953-0.540039
		c-0.209961-0.236328-0.371094-0.526367-0.485352-0.868164c-0.114258-0.342773-0.171875-0.735352-0.171875-1.176758
		c0-0.37207,0.053711-0.71582,0.15918-1.030273c0.106445-0.314453,0.259766-0.585938,0.458984-0.813477
		c0.200195-0.228516,0.445312-0.40625,0.736328-0.535156C127.16761,3.697418,127.496712,3.632965,127.865852,3.632965z
		 M127.873665,4.004059c-0.267578,0-0.507812,0.041016-0.71875,0.125c-0.211914,0.083008-0.395508,0.203125-0.549805,0.360352
		c-0.154297,0.15625-0.279297,0.34375-0.375,0.5625c-0.095703,0.219727-0.15918,0.464844-0.19043,0.736328h3.416985
		c0-0.27832-0.038086-0.52832-0.114258-0.749023c-0.077148-0.220703-0.18457-0.407227-0.323242-0.560547
		s-0.305664-0.270508-0.5-0.352539C128.324829,4.045074,128.109009,4.004059,127.873665,4.004059z"/>
	<path class="st2" d="M133.431274,3.628082c0.226562,0,0.435547,0.02832,0.628906,0.083984s0.366211,0.133789,0.518555,0.234375
		h1.331055v0.171875c0,0.086914-0.048828,0.133789-0.146484,0.140625l-0.788086,0.057617
		c0.097656,0.132812,0.172852,0.28125,0.224609,0.446289s0.078125,0.341797,0.078125,0.529297
		c0,0.250977-0.044922,0.477539-0.135742,0.680664c-0.089844,0.204102-0.21582,0.37793-0.37793,0.521484
		c-0.162109,0.144531-0.355469,0.256836-0.582031,0.336914c-0.225586,0.080078-0.476562,0.120117-0.750977,0.120117
		c-0.298828,0-0.570312-0.044922-0.813477-0.135742c-0.146484,0.083008-0.260742,0.182617-0.344727,0.296875
		c-0.083008,0.115234-0.125,0.226562-0.125,0.333984c0,0.149414,0.052734,0.264648,0.15625,0.344727
		c0.104492,0.080078,0.243164,0.137695,0.415039,0.174805c0.171875,0.036133,0.368164,0.05957,0.589844,0.070312
		c0.220703,0.010742,0.444336,0.021484,0.672852,0.03418c0.227539,0.011719,0.452148,0.033203,0.672852,0.064453
		s0.416992,0.086914,0.588867,0.165039c0.172852,0.078125,0.310547,0.1875,0.415039,0.328125s0.15625,0.328125,0.15625,0.560547
		c0,0.21582-0.053711,0.422852-0.161133,0.621094c-0.108398,0.198242-0.263672,0.374023-0.466797,0.527344
		c-0.204102,0.152344-0.450195,0.275391-0.738281,0.367188c-0.289062,0.092773-0.612305,0.138672-0.970703,0.138672
		c-0.365234,0-0.68457-0.038086-0.959961-0.112305c-0.274414-0.075195-0.504883-0.175781-0.69043-0.302734
		c-0.186523-0.126953-0.326172-0.273438-0.419922-0.44043c-0.094727-0.166992-0.141602-0.344727-0.141602-0.532227
		c0-0.274414,0.09082-0.511719,0.271484-0.709961s0.429688-0.350586,0.746094-0.458984
		c-0.173828-0.058594-0.3125-0.143555-0.415039-0.254883s-0.15332-0.266602-0.15332-0.464844
		c0-0.073242,0.013672-0.149414,0.041992-0.229492c0.027344-0.080078,0.069336-0.15918,0.125-0.237305
		s0.12207-0.152344,0.200195-0.22168s0.169922-0.131836,0.274414-0.1875c-0.24707-0.142578-0.439453-0.332031-0.576172-0.569336
		c-0.137695-0.236328-0.206055-0.512695-0.206055-0.829102c0-0.25,0.043945-0.477539,0.132812-0.680664
		s0.213867-0.37793,0.375-0.524414c0.162109-0.145508,0.357422-0.258789,0.586914-0.338867S133.152954,3.628082,133.431274,3.628082
		z M135.356079,9.256989c0-0.164062-0.041992-0.294922-0.12793-0.393555c-0.084961-0.099609-0.198242-0.176758-0.34082-0.232422
		s-0.307617-0.094727-0.493164-0.117188c-0.186523-0.022461-0.380859-0.039062-0.584961-0.049805
		c-0.203125-0.010742-0.407227-0.020508-0.612305-0.03125s-0.396484-0.03125-0.574219-0.0625
		c-0.131836,0.051758-0.254883,0.112305-0.367188,0.179688c-0.113281,0.068359-0.209961,0.144531-0.290039,0.229492
		s-0.142578,0.178711-0.1875,0.282227c-0.044922,0.102539-0.068359,0.213867-0.068359,0.335938
		c0,0.15332,0.039062,0.294922,0.118164,0.424805c0.078125,0.130859,0.192383,0.244141,0.34375,0.339844
		s0.336914,0.170898,0.555664,0.226562s0.47168,0.083984,0.756836,0.083984c0.263672,0,0.509766-0.030273,0.737305-0.088867
		c0.228516-0.05957,0.426758-0.142578,0.594727-0.250977c0.168945-0.107422,0.300781-0.236328,0.396484-0.385742
		S135.356079,9.434723,135.356079,9.256989z M133.431274,6.612457c0.222656,0,0.420898-0.032227,0.594727-0.09668
		s0.320312-0.154297,0.438477-0.268555c0.118164-0.115234,0.208008-0.251953,0.268555-0.412109s0.09082-0.337891,0.09082-0.532227
		c0-0.195312-0.03125-0.373047-0.09375-0.535156c-0.0625-0.161133-0.15332-0.299805-0.273438-0.414062
		c-0.120117-0.115234-0.266602-0.204102-0.438477-0.266602s-0.367188-0.09375-0.586914-0.09375
		c-0.21875,0-0.415039,0.03125-0.588867,0.09375c-0.174805,0.0625-0.321289,0.151367-0.441406,0.266602
		c-0.120117,0.114258-0.210938,0.25293-0.273438,0.414062c-0.0625,0.162109-0.09375,0.339844-0.09375,0.535156
		c0,0.194336,0.03125,0.37207,0.09375,0.532227s0.15332,0.296875,0.273438,0.412109
		c0.120117,0.114258,0.266602,0.204102,0.441406,0.268555C133.016235,6.580231,133.212524,6.612457,133.431274,6.612457z"/>
	<path class="st2" d="M139.420532,3.632965c0.291992,0,0.5625,0.050781,0.810547,0.151367
		c0.249023,0.101562,0.464844,0.248047,0.647461,0.441406c0.182617,0.192383,0.325195,0.429688,0.427734,0.711914
		c0.102539,0.28125,0.15332,0.605469,0.15332,0.969727c0,0.077148-0.010742,0.128906-0.033203,0.157227
		c-0.022461,0.027344-0.058594,0.041016-0.107422,0.041016h-3.745117v0.099609c0,0.389648,0.044922,0.732422,0.135742,1.027344
		c0.089844,0.295898,0.21875,0.543945,0.385742,0.743164c0.166992,0.200195,0.368164,0.350586,0.605469,0.452148
		c0.236328,0.100586,0.5,0.150391,0.792969,0.150391c0.260742,0,0.486328-0.02832,0.677734-0.085938
		c0.191406-0.056641,0.352539-0.121094,0.482422-0.192383c0.130859-0.071289,0.234375-0.135742,0.310547-0.193359
		s0.131836-0.085938,0.166992-0.085938c0.044922,0,0.080078,0.017578,0.104492,0.051758l0.135742,0.166992
		c-0.083984,0.104492-0.194336,0.202148-0.332031,0.291992c-0.136719,0.09082-0.290039,0.167969-0.458984,0.232422
		c-0.167969,0.064453-0.349609,0.116211-0.541992,0.154297c-0.193359,0.038086-0.386719,0.056641-0.582031,0.056641
		c-0.354492,0-0.677734-0.061523-0.969727-0.18457c-0.292969-0.124023-0.542969-0.303711-0.751953-0.540039
		c-0.209961-0.236328-0.371094-0.526367-0.485352-0.868164c-0.114258-0.342773-0.171875-0.735352-0.171875-1.176758
		c0-0.37207,0.053711-0.71582,0.15918-1.030273c0.106445-0.314453,0.259766-0.585938,0.458984-0.813477
		c0.200195-0.228516,0.445312-0.40625,0.736328-0.535156C138.72229,3.697418,139.051392,3.632965,139.420532,3.632965z
		 M139.428345,4.004059c-0.267578,0-0.507812,0.041016-0.71875,0.125c-0.211914,0.083008-0.395508,0.203125-0.549805,0.360352
		c-0.154297,0.15625-0.279297,0.34375-0.375,0.5625c-0.095703,0.219727-0.15918,0.464844-0.19043,0.736328h3.416992
		c0-0.27832-0.038086-0.52832-0.114258-0.749023c-0.077148-0.220703-0.18457-0.407227-0.323242-0.560547
		s-0.305664-0.270508-0.5-0.352539C139.879517,4.045074,139.663696,4.004059,139.428345,4.004059z"/>
	<path class="st2" d="M143.916626,1.317535v7.589844h-0.495117V1.317535H143.916626z"/>
	<path class="st2" d="M145.502563,3.716949h0.380859c0.048828,0,0.088867,0.012695,0.120117,0.039062
		s0.051758,0.054688,0.0625,0.085938l1.308594,4.094727c0.024414,0.080078,0.043945,0.157227,0.057617,0.229492
		c0.013672,0.073242,0.02832,0.146484,0.041992,0.219727c0.017578-0.073242,0.036133-0.146484,0.057617-0.219727
		c0.020508-0.072266,0.044922-0.149414,0.072266-0.229492l1.393555-4.130859c0.024414-0.077148,0.073242-0.115234,0.145508-0.115234
		h0.204102c0.076172,0,0.126953,0.038086,0.151367,0.115234l1.371094,4.130859
		c0.052734,0.157227,0.094727,0.308594,0.125977,0.454102c0.013672-0.073242,0.02832-0.146484,0.043945-0.22168
		c0.015625-0.074219,0.037109-0.152344,0.06543-0.232422l1.314453-4.094727c0.027344-0.083008,0.086914-0.125,0.177734-0.125
		h0.364258l-1.736328,5.19043h-0.365234c-0.055664,0-0.095703-0.036133-0.120117-0.109375L149.31604,4.58316
		c-0.017578-0.052734-0.033203-0.104492-0.046875-0.157227c-0.014648-0.051758-0.026367-0.103516-0.037109-0.15625
		c-0.010742,0.052734-0.021484,0.104492-0.03418,0.15625c-0.011719,0.052734-0.026367,0.104492-0.043945,0.157227
		l-1.439453,4.214844c-0.021484,0.073242-0.0625,0.109375-0.125977,0.109375h-0.348633L145.502563,3.716949z"/>
	<path class="st2" d="M156.358032,3.632965c0.291992,0,0.5625,0.050781,0.811523,0.151367
		c0.248047,0.101562,0.463867,0.248047,0.646484,0.441406c0.182617,0.192383,0.325195,0.429688,0.427734,0.711914
		c0.102539,0.28125,0.154297,0.605469,0.154297,0.969727c0,0.077148-0.011719,0.128906-0.03418,0.157227
		c-0.022461,0.027344-0.057617,0.041016-0.106445,0.041016h-3.746094v0.099609c0,0.389648,0.045898,0.732422,0.135742,1.027344
		c0.09082,0.295898,0.219727,0.543945,0.385742,0.743164c0.166992,0.200195,0.369141,0.350586,0.605469,0.452148
		c0.236328,0.100586,0.500977,0.150391,0.792969,0.150391c0.260742,0,0.487305-0.02832,0.677734-0.085938
		c0.191406-0.056641,0.352539-0.121094,0.483398-0.192383c0.129883-0.071289,0.233398-0.135742,0.30957-0.193359
		c0.077148-0.057617,0.132812-0.085938,0.166992-0.085938c0.045898,0,0.080078,0.017578,0.104492,0.051758l0.135742,0.166992
		c-0.083008,0.104492-0.193359,0.202148-0.331055,0.291992c-0.137695,0.09082-0.290039,0.167969-0.458984,0.232422
		s-0.349609,0.116211-0.542969,0.154297c-0.192383,0.038086-0.386719,0.056641-0.581055,0.056641
		c-0.355469,0-0.678711-0.061523-0.970703-0.18457c-0.291992-0.124023-0.542969-0.303711-0.751953-0.540039
		s-0.371094-0.526367-0.485352-0.868164c-0.114258-0.342773-0.170898-0.735352-0.170898-1.176758
		c0-0.37207,0.052734-0.71582,0.15918-1.030273c0.105469-0.314453,0.258789-0.585938,0.458984-0.813477
		c0.200195-0.228516,0.445312-0.40625,0.735352-0.535156S155.989868,3.632965,156.358032,3.632965z M156.365845,4.004059
		c-0.267578,0-0.506836,0.041016-0.71875,0.125c-0.211914,0.083008-0.394531,0.203125-0.549805,0.360352
		c-0.154297,0.15625-0.279297,0.34375-0.375,0.5625c-0.095703,0.219727-0.158203,0.464844-0.189453,0.736328h3.416992
		c0-0.27832-0.039062-0.52832-0.115234-0.749023s-0.183594-0.407227-0.323242-0.560547
		c-0.138672-0.15332-0.304688-0.270508-0.5-0.352539C156.817017,4.045074,156.602173,4.004059,156.365845,4.004059z"/>
	<path class="st2" d="M160.213501,8.907379v-5.19043h0.260742c0.058594,0,0.101562,0.011719,0.12793,0.036133
		c0.025391,0.024414,0.040039,0.066406,0.043945,0.125977l0.041992,1.094727c0.166992-0.420898,0.389648-0.75,0.666992-0.988281
		c0.27832-0.238281,0.621094-0.357422,1.02832-0.357422c0.15625,0,0.300781,0.016602,0.432617,0.049805
		s0.257812,0.081055,0.375977,0.143555l-0.068359,0.34375c-0.009766,0.055664-0.044922,0.083984-0.104492,0.083984
		c-0.020508,0-0.049805-0.006836-0.087891-0.021484c-0.039062-0.013672-0.085938-0.029297-0.143555-0.046875
		c-0.057617-0.016602-0.12793-0.032227-0.211914-0.046875c-0.083008-0.013672-0.178711-0.020508-0.286133-0.020508
		c-0.393555,0-0.71582,0.12207-0.967773,0.365234c-0.25293,0.243164-0.457031,0.594727-0.613281,1.053711v3.375H160.213501z"/>
	<path class="st2" d="M165.382446,1.317535v4.626953h0.240234c0.048828,0,0.094727-0.006836,0.137695-0.020508
		c0.043945-0.014648,0.091797-0.047852,0.143555-0.099609l2.082031-1.977539c0.038086-0.038086,0.077148-0.069336,0.117188-0.09375
		s0.09082-0.036133,0.15332-0.036133h0.438477l-2.290039,2.174805c-0.035156,0.035156-0.067383,0.067383-0.099609,0.09668
		c-0.03125,0.030273-0.06543,0.054688-0.103516,0.076172c0.055664,0.027344,0.102539,0.060547,0.140625,0.098633
		s0.078125,0.080078,0.120117,0.125l2.404297,2.619141h-0.432617c-0.048828,0-0.091797-0.009766-0.130859-0.02832
		c-0.038086-0.019531-0.076172-0.049805-0.114258-0.091797l-2.180664-2.336914c-0.05957-0.0625-0.113281-0.105469-0.162109-0.12793
		c-0.047852-0.022461-0.125-0.03418-0.229492-0.03418h-0.234375v2.619141h-0.495117V1.317535H165.382446z"/>
	<path class="st2" d="M68.930794,21.42691h-0.438477l-2.190918-5.19043h0.391113c0.048828,0,0.087891,0.012695,0.117676,0.039062
		c0.029297,0.026367,0.05127,0.054688,0.064941,0.085938l1.710938,4.094727c0.035156,0.080078,0.061035,0.157227,0.078613,0.229492
		c0.01709,0.073242,0.034668,0.146484,0.052246,0.219727c0.01709-0.073242,0.035645-0.147461,0.054688-0.22168
		c0.019043-0.075195,0.044434-0.150391,0.075684-0.227539l1.721191-4.094727c0.017578-0.038086,0.041016-0.068359,0.070312-0.09082
		c0.029785-0.022461,0.06543-0.03418,0.106934-0.03418h0.375977L68.930794,21.42691z"/>
	<path class="st2" d="M74.460579,16.152496c0.37207,0,0.705078,0.063477,0.999023,0.19043
		c0.293457,0.126953,0.541504,0.307617,0.743164,0.540039c0.20166,0.233398,0.355469,0.513672,0.461914,0.842773
		c0.105957,0.329102,0.158691,0.696289,0.158691,1.103516c0,0.40625-0.052734,0.773438-0.158691,1.100586
		c-0.106445,0.327148-0.260254,0.606445-0.461914,0.839844s-0.449707,0.412109-0.743164,0.537109
		c-0.293945,0.125-0.626953,0.1875-0.999023,0.1875s-0.705078-0.0625-0.999023-0.1875s-0.54248-0.303711-0.746094-0.537109
		s-0.358398-0.512695-0.464355-0.839844s-0.15918-0.694336-0.15918-1.100586c0-0.407227,0.053223-0.774414,0.15918-1.103516
		s0.260742-0.609375,0.464355-0.842773c0.203613-0.232422,0.452148-0.413086,0.746094-0.540039
		S74.088509,16.152496,74.460579,16.152496z M74.460579,21.103668c0.30957,0,0.57959-0.052734,0.811035-0.15918
		s0.424316-0.258789,0.579102-0.457031s0.270508-0.436523,0.34668-0.716797c0.07666-0.280273,0.114746-0.59375,0.114746-0.941406
		c0-0.344727-0.038086-0.657227-0.114746-0.939453c-0.076172-0.28125-0.191895-0.522461-0.34668-0.722656
		c-0.154785-0.199219-0.347656-0.353516-0.579102-0.460938c-0.231445-0.108398-0.501465-0.162109-0.811035-0.162109
		s-0.580078,0.053711-0.811523,0.162109c-0.230957,0.107422-0.424316,0.261719-0.578613,0.460938
		c-0.154785,0.200195-0.271484,0.441406-0.349609,0.722656c-0.078125,0.282227-0.117676,0.594727-0.117676,0.939453
		c0,0.347656,0.039551,0.661133,0.117676,0.941406s0.194824,0.518555,0.349609,0.716797
		c0.154297,0.198242,0.347656,0.350586,0.578613,0.457031C73.880501,21.050934,74.151009,21.103668,74.460579,21.103668z"/>
	<path class="st2" d="M78.607552,21.42691v-5.19043h0.270996c0.090332,0,0.142578,0.043945,0.156738,0.129883l0.046875,0.783203
		c0.236328-0.298828,0.512207-0.540039,0.82666-0.722656c0.314941-0.182617,0.665039-0.274414,1.05127-0.274414
		c0.285156,0,0.536621,0.045898,0.753906,0.135742c0.217285,0.09082,0.396973,0.22168,0.540039,0.391602
		c0.14209,0.170898,0.25,0.375977,0.323242,0.615234c0.072754,0.240234,0.109375,0.511719,0.109375,0.814453v3.317383h-0.495605
		v-3.317383c0-0.487305-0.111328-0.869141-0.333496-1.145508c-0.222656-0.276367-0.563477-0.415039-1.022461-0.415039
		c-0.341309,0-0.657715,0.087891-0.949707,0.263672s-0.552734,0.416992-0.782227,0.722656v3.891602H78.607552z"/>
	<path class="st2" d="M87.631477,20.508942c0.07666,0.131836,0.132324,0.263672,0.166992,0.393555
		c0.034668,0.130859,0.052246,0.261719,0.052246,0.393555c0,0.271484-0.066406,0.532227-0.198242,0.783203
		c-0.132324,0.25-0.304688,0.477539-0.516602,0.682617l-0.145996-0.09375c-0.024414-0.020508-0.036621-0.044922-0.036621-0.072266
		c0-0.02832,0.010742-0.052734,0.03125-0.073242c0.132324-0.173828,0.241699-0.348633,0.328613-0.524414
		s0.130371-0.357422,0.130371-0.544922c0-0.202148-0.060547-0.40918-0.182129-0.621094
		c-0.017578-0.027344-0.026367-0.055664-0.026367-0.083008c0-0.048828,0.026367-0.083984,0.078125-0.104492L87.631477,20.508942z
		 M89.034798,20.508942c0.076172,0.131836,0.132324,0.263672,0.166992,0.393555
		c0.034668,0.130859,0.052246,0.261719,0.052246,0.393555c0,0.271484-0.066406,0.532227-0.198242,0.783203
		c-0.132324,0.25-0.304688,0.477539-0.516602,0.682617l-0.145996-0.09375c-0.024414-0.020508-0.036621-0.044922-0.036621-0.072266
		c0-0.02832,0.010254-0.052734,0.03125-0.073242c0.132324-0.173828,0.241699-0.348633,0.328613-0.524414
		s0.130371-0.357422,0.130371-0.544922c0-0.202148-0.060547-0.40918-0.182617-0.621094
		c-0.01709-0.027344-0.025879-0.055664-0.025879-0.083008c0-0.048828,0.025879-0.083984,0.078125-0.104492L89.034798,20.508942z"/>
	<path class="st2" d="M95.107063,19.590973c0.020996-0.055664,0.04248-0.110352,0.06543-0.165039
		c0.022461-0.053711,0.047363-0.104492,0.075684-0.15332l2.900391-5.12793c0.027832-0.044922,0.055176-0.073242,0.083496-0.083984
		c0.027344-0.009766,0.065918-0.015625,0.114746-0.015625h0.370117v7.381836h-0.469238v-6.291016
		c0-0.09082,0.004883-0.186523,0.015625-0.287109l-2.905762,5.15918c-0.048828,0.09082-0.118164,0.135742-0.208496,0.135742
		h-0.083496c-0.086914,0-0.156738-0.044922-0.208984-0.135742l-2.983887-5.164062
		c0.010742,0.100586,0.015625,0.198242,0.015625,0.291992v6.291016h-0.463867v-7.381836h0.364746
		c0.048828,0,0.087891,0.005859,0.117676,0.015625c0.029297,0.010742,0.058105,0.039062,0.085938,0.083984l2.978516,5.132812
		C95.023567,19.375153,95.068977,19.479645,95.107063,19.590973z"/>
	<path class="st2" d="M104.449837,21.42691c-0.104492,0-0.168945-0.048828-0.193359-0.146484l-0.072754-0.662109
		c-0.142578,0.139648-0.28418,0.264648-0.425293,0.375977c-0.140625,0.111328-0.287598,0.205078-0.440918,0.28125
		c-0.152832,0.076172-0.317871,0.134766-0.495117,0.174805c-0.177734,0.040039-0.372559,0.05957-0.584473,0.05957
		c-0.177246,0-0.349609-0.025391-0.516602-0.078125c-0.166992-0.051758-0.314453-0.131836-0.443359-0.239258
		c-0.128418-0.108398-0.231934-0.246094-0.310059-0.415039c-0.078613-0.168945-0.117676-0.371094-0.117676-0.607422
		c0-0.219727,0.0625-0.422852,0.187988-0.610352c0.125-0.188477,0.320801-0.351562,0.586914-0.490234
		c0.266113-0.139648,0.608398-0.250977,1.027344-0.333984c0.418945-0.083984,0.922363-0.132812,1.510254-0.146484v-0.541992
		c0-0.480469-0.103516-0.849609-0.310059-1.109375c-0.207031-0.258789-0.51416-0.388672-0.920898-0.388672
		c-0.250488,0-0.463379,0.035156-0.63916,0.104492c-0.175781,0.070312-0.324219,0.146484-0.445801,0.229492
		c-0.12207,0.083984-0.221191,0.160156-0.297363,0.229492c-0.07666,0.070312-0.141113,0.104492-0.193359,0.104492
		c-0.069336,0-0.121582-0.03125-0.15625-0.09375l-0.088867-0.151367c0.271484-0.271484,0.556641-0.476562,0.855469-0.615234
		c0.299316-0.139648,0.638184-0.208984,1.017578-0.208984c0.277832,0,0.521484,0.044922,0.72998,0.132812
		c0.208984,0.088867,0.381836,0.21582,0.519043,0.380859c0.137695,0.165039,0.241211,0.365234,0.310547,0.600586
		c0.069336,0.234375,0.104492,0.496094,0.104492,0.785156v3.379883H104.449837z M102.362923,21.150543
		c0.20166,0,0.387207-0.021484,0.555664-0.06543c0.168945-0.042969,0.325195-0.104492,0.469727-0.182617
		c0.144043-0.078125,0.278809-0.170898,0.404297-0.279297c0.125-0.107422,0.248535-0.223633,0.370117-0.349609v-1.350586
		c-0.493652,0.013672-0.918945,0.051758-1.275391,0.112305s-0.650391,0.143555-0.881348,0.248047
		c-0.231445,0.103516-0.401855,0.228516-0.51123,0.37207c-0.109863,0.144531-0.164551,0.30957-0.164551,0.493164
		c0,0.173828,0.028809,0.324219,0.085938,0.451172c0.057617,0.126953,0.133301,0.231445,0.227051,0.313477
		s0.203613,0.141602,0.328613,0.179688S102.227669,21.150543,102.362923,21.150543z"/>
	<path class="st2" d="M107.058235,16.236481v3.317383c0,0.487305,0.111328,0.869141,0.334961,1.145508
		c0.223145,0.276367,0.563477,0.414062,1.020508,0.414062c0.338379,0,0.654297-0.085938,0.947266-0.257812
		s0.556641-0.411133,0.790039-0.716797v-3.902344h0.496094v5.19043h-0.273438c-0.09668,0-0.146484-0.044922-0.149414-0.135742
		l-0.046875-0.771484c-0.240234,0.298828-0.518555,0.539062-0.833496,0.719727s-0.666016,0.270508-1.052246,0.270508
		c-0.289062,0-0.541504-0.044922-0.757812-0.134766c-0.21582-0.09082-0.39502-0.22168-0.537598-0.391602
		c-0.143066-0.169922-0.250977-0.375977-0.324219-0.615234c-0.073242-0.240234-0.109375-0.511719-0.109375-0.814453v-3.317383
		H107.058235z"/>
	<path class="st2" d="M112.492805,18.119293h2.425781v0.422852h-2.425781V18.119293z"/>
	<path class="st2" d="M120.69886,19.590973c0.020508-0.055664,0.041992-0.110352,0.06543-0.165039
		c0.022461-0.053711,0.046875-0.104492,0.075195-0.15332l2.900391-5.12793c0.02832-0.044922,0.055664-0.073242,0.083984-0.083984
		c0.027344-0.009766,0.06543-0.015625,0.114258-0.015625h0.370117v7.381836h-0.46875v-6.291016
		c0-0.09082,0.004883-0.186523,0.015625-0.287109l-2.90625,5.15918c-0.048828,0.09082-0.118164,0.135742-0.208008,0.135742
		h-0.083984c-0.086914,0-0.15625-0.044922-0.208984-0.135742l-2.983398-5.164062
		c0.010742,0.100586,0.015625,0.198242,0.015625,0.291992v6.291016h-0.463867v-7.381836h0.364258
		c0.048828,0,0.087891,0.005859,0.118164,0.015625c0.029297,0.010742,0.057617,0.039062,0.085938,0.083984l2.978516,5.132812
		C120.614876,19.375153,120.660774,19.479645,120.69886,19.590973z"/>
	<path class="st2" d="M130.041626,21.42691c-0.104492,0-0.168945-0.048828-0.193359-0.146484l-0.072266-0.662109
		c-0.142578,0.139648-0.28418,0.264648-0.425781,0.375977c-0.140625,0.111328-0.287109,0.205078-0.44043,0.28125
		s-0.318359,0.134766-0.495117,0.174805c-0.177734,0.040039-0.373047,0.05957-0.584953,0.05957
		c-0.176758,0-0.349609-0.025391-0.516602-0.078125c-0.166992-0.051758-0.314453-0.131836-0.443359-0.239258
		c-0.12793-0.108398-0.231445-0.246094-0.30957-0.415039c-0.079102-0.168945-0.118164-0.371094-0.118164-0.607422
		c0-0.219727,0.0625-0.422852,0.188477-0.610352c0.125-0.188477,0.320312-0.351562,0.586914-0.490234
		c0.265625-0.139648,0.608398-0.250977,1.027336-0.333984c0.418945-0.083984,0.921875-0.132812,1.509766-0.146484v-0.541992
		c0-0.480469-0.103516-0.849609-0.30957-1.109375c-0.207031-0.258789-0.514648-0.388672-0.920898-0.388672
		c-0.250977,0-0.463867,0.035156-0.639641,0.104492c-0.175781,0.070312-0.324219,0.146484-0.445312,0.229492
		c-0.12207,0.083984-0.22168,0.160156-0.297852,0.229492c-0.076172,0.070312-0.140625,0.104492-0.193359,0.104492
		c-0.069336,0-0.121094-0.03125-0.15625-0.09375l-0.088867-0.151367c0.271484-0.271484,0.556641-0.476562,0.855469-0.615234
		c0.299805-0.139648,0.638664-0.208984,1.01757-0.208984c0.27832,0,0.521484,0.044922,0.730469,0.132812
		c0.208984,0.088867,0.381836,0.21582,0.518555,0.380859c0.137695,0.165039,0.241211,0.365234,0.310547,0.600586
		c0.069336,0.234375,0.104492,0.496094,0.104492,0.785156v3.379883H130.041626z M127.95472,21.150543
		c0.202141,0,0.387688-0.021484,0.555656-0.06543c0.168945-0.042969,0.325195-0.104492,0.469727-0.182617
		s0.279297-0.170898,0.404297-0.279297c0.125-0.107422,0.249023-0.223633,0.370117-0.349609v-1.350586
		c-0.493164,0.013672-0.918945,0.051758-1.275391,0.112305s-0.650383,0.143555-0.880852,0.248047
		c-0.231445,0.103516-0.402344,0.228516-0.511719,0.37207c-0.109375,0.144531-0.164062,0.30957-0.164062,0.493164
		c0,0.173828,0.02832,0.324219,0.085938,0.451172s0.132812,0.231445,0.226562,0.313477s0.204102,0.141602,0.329102,0.179688
		S127.819954,21.150543,127.95472,21.150543z"/>
	<path class="st2" d="M132.650024,16.236481v3.317383c0,0.487305,0.111328,0.869141,0.334961,1.145508
		s0.563477,0.414062,1.020508,0.414062c0.338867,0,0.654297-0.085938,0.947266-0.257812s0.556641-0.411133,0.791016-0.716797
		v-3.902344h0.495117v5.19043h-0.273438c-0.095703,0-0.145508-0.044922-0.149414-0.135742l-0.046875-0.771484
		c-0.240234,0.298828-0.517578,0.539062-0.833008,0.719727s-0.666016,0.270508-1.052734,0.270508
		c-0.289062,0-0.541016-0.044922-0.757812-0.134766c-0.21582-0.09082-0.394531-0.22168-0.537109-0.391602
		c-0.143555-0.169922-0.250977-0.375977-0.324219-0.615234c-0.073242-0.240234-0.109375-0.511719-0.109375-0.814453v-3.317383
		H132.650024z"/>
	<path class="st2" d="M138.455688,15.913239c-0.073242-0.132812-0.126953-0.263672-0.161133-0.394531
		c-0.035156-0.129883-0.052734-0.260742-0.052734-0.393555c0-0.271484,0.066406-0.532227,0.198242-0.782227
		c0.131836-0.250977,0.304688-0.478516,0.516602-0.683594l0.140625,0.09375c0.02832,0.021484,0.041992,0.045898,0.041992,0.073242
		c0,0.024414-0.010742,0.046875-0.03125,0.067383c-0.131836,0.177734-0.242188,0.353516-0.329102,0.527344
		s-0.129883,0.354492-0.129883,0.542969c0,0.205078,0.060547,0.413086,0.182617,0.625977
		c0.017578,0.027344,0.026367,0.055664,0.026367,0.083008c0,0.048828-0.026367,0.083984-0.079102,0.104492L138.455688,15.913239z
		 M139.859009,15.913239c-0.073242-0.132812-0.126953-0.263672-0.161133-0.394531
		c-0.035156-0.129883-0.052734-0.260742-0.052734-0.393555c0-0.271484,0.066406-0.532227,0.198242-0.782227
		c0.131836-0.250977,0.304688-0.478516,0.516602-0.683594l0.140625,0.09375c0.02832,0.021484,0.041992,0.045898,0.041992,0.073242
		c0,0.024414-0.010742,0.046875-0.03125,0.067383c-0.132812,0.177734-0.242188,0.353516-0.329102,0.527344
		s-0.129883,0.354492-0.129883,0.542969c0,0.205078,0.060547,0.413086,0.182617,0.625977
		c0.017578,0.027344,0.025391,0.055664,0.025391,0.083008c0,0.048828-0.025391,0.083984-0.078125,0.104492L139.859009,15.913239z"/>
	<path class="st2" d="M142.550415,21.42691v-4.648438l-0.730469-0.046875c-0.100586-0.006836-0.150391-0.049805-0.150391-0.129883
		V16.39859h0.880859v-0.658203c0-0.294922,0.038086-0.554688,0.115234-0.779297
		c0.076172-0.224609,0.183594-0.411133,0.323242-0.560547c0.138672-0.149414,0.306641-0.261719,0.50293-0.336914
		c0.197266-0.074219,0.413086-0.112305,0.649414-0.112305c0.108398,0,0.216797,0.009766,0.326172,0.029297
		c0.110352,0.018555,0.206055,0.045898,0.290039,0.080078l-0.015625,0.240234
		c-0.003906,0.048828-0.037109,0.073242-0.099609,0.073242c-0.041016,0-0.097656-0.004883-0.168945-0.015625
		s-0.15918-0.015625-0.263672-0.015625c-0.170898,0-0.328125,0.025391-0.47168,0.075195
		c-0.144531,0.050781-0.269531,0.131836-0.373047,0.243164c-0.104492,0.111328-0.185547,0.255859-0.243164,0.435547
		c-0.057617,0.178711-0.085938,0.398438-0.085938,0.660156v0.641602h1.68457v0.370117h-1.673828v4.658203H142.550415z"/>
	<path class="st2" d="M146.562134,16.236481v3.317383c0,0.487305,0.111328,0.869141,0.334961,1.145508
		s0.563477,0.414062,1.020508,0.414062c0.338867,0,0.654297-0.085938,0.947266-0.257812s0.556641-0.411133,0.791016-0.716797
		v-3.902344h0.495117v5.19043h-0.273438c-0.095703,0-0.145508-0.044922-0.149414-0.135742l-0.046875-0.771484
		c-0.240234,0.298828-0.517578,0.539062-0.833008,0.719727s-0.666016,0.270508-1.052734,0.270508
		c-0.289062,0-0.541016-0.044922-0.757812-0.134766c-0.21582-0.09082-0.394531-0.22168-0.537109-0.391602
		c-0.143555-0.169922-0.250977-0.375977-0.324219-0.615234c-0.073242-0.240234-0.109375-0.511719-0.109375-0.814453v-3.317383
		H146.562134z M147.678345,14.728668c0,0.055664-0.011719,0.109375-0.036133,0.15918
		c-0.024414,0.050781-0.055664,0.094727-0.09375,0.132812c-0.039062,0.039062-0.084961,0.069336-0.138672,0.091797
		s-0.108398,0.03418-0.164062,0.03418s-0.109375-0.011719-0.15918-0.03418c-0.050781-0.022461-0.095703-0.052734-0.135742-0.091797
		c-0.040039-0.038086-0.071289-0.082031-0.09375-0.132812c-0.022461-0.049805-0.03418-0.103516-0.03418-0.15918
		c0-0.058594,0.011719-0.114258,0.03418-0.166992c0.022461-0.051758,0.053711-0.097656,0.09375-0.137695
		s0.084961-0.071289,0.135742-0.09375c0.049805-0.023438,0.103516-0.03418,0.15918-0.03418s0.110352,0.010742,0.164062,0.03418
		c0.053711,0.022461,0.099609,0.053711,0.138672,0.09375c0.038086,0.040039,0.069336,0.085938,0.09375,0.137695
		C147.666626,14.61441,147.678345,14.670074,147.678345,14.728668z M149.467407,14.728668
		c0,0.055664-0.011719,0.109375-0.036133,0.15918c-0.024414,0.050781-0.055664,0.094727-0.09375,0.132812
		c-0.038086,0.039062-0.084961,0.069336-0.138672,0.091797s-0.108398,0.03418-0.164062,0.03418
		c-0.05957,0-0.114258-0.011719-0.164062-0.03418c-0.050781-0.022461-0.095703-0.052734-0.135742-0.091797
		c-0.040039-0.038086-0.071289-0.082031-0.09375-0.132812c-0.022461-0.049805-0.03418-0.103516-0.03418-0.15918
		c0-0.058594,0.011719-0.114258,0.03418-0.166992c0.022461-0.051758,0.053711-0.097656,0.09375-0.137695
		s0.084961-0.071289,0.135742-0.09375c0.049805-0.023438,0.104492-0.03418,0.164062-0.03418
		c0.055664,0,0.110352,0.010742,0.164062,0.03418c0.053711,0.022461,0.100586,0.053711,0.138672,0.09375
		s0.069336,0.085938,0.09375,0.137695C149.455688,14.61441,149.467407,14.670074,149.467407,14.728668z"/>
	<path class="st2" d="M152.320923,21.42691v-5.19043h0.260742c0.05957,0,0.101562,0.011719,0.12793,0.036133
		s0.041016,0.066406,0.043945,0.125977l0.041992,1.094727c0.166992-0.420898,0.389648-0.75,0.667969-0.988281
		s0.621094-0.357422,1.027344-0.357422c0.157227,0,0.300781,0.016602,0.433594,0.049805
		c0.131836,0.033203,0.256836,0.081055,0.375,0.143555l-0.067383,0.34375c-0.010742,0.055664-0.045898,0.083984-0.104492,0.083984
		c-0.020508,0-0.050781-0.006836-0.088867-0.021484c-0.038086-0.013672-0.085938-0.029297-0.143555-0.046875
		c-0.056641-0.016602-0.12793-0.032227-0.210938-0.046875c-0.083984-0.013672-0.179688-0.020508-0.287109-0.020508
		c-0.392578,0-0.71582,0.12207-0.967773,0.365234s-0.456055,0.594727-0.612305,1.053711v3.375H152.320923z"/>
	<path class="st2" d="M163.116821,21.42691c-0.084961,0-0.134766-0.044922-0.149414-0.135742l-0.051758-0.819336
		c-0.230469,0.313477-0.499023,0.5625-0.807617,0.746094c-0.307617,0.18457-0.65332,0.276367-1.036133,0.276367
		c-0.637695,0-1.134766-0.220703-1.491211-0.662109c-0.357422-0.441406-0.536133-1.104492-0.536133-1.987305
		c0-0.378906,0.049805-0.733398,0.149414-1.061523c0.099609-0.329102,0.245117-0.614258,0.438477-0.855469
		c0.193359-0.242188,0.430664-0.432617,0.710938-0.571289c0.280273-0.139648,0.603516-0.208984,0.96875-0.208984
		c0.351562,0,0.65625,0.06543,0.914062,0.195312c0.257812,0.130859,0.480469,0.321289,0.668945,0.571289v-3.077148h0.495117
		v7.589844H163.116821z M161.212524,21.092926c0.344727,0,0.65625-0.088867,0.935547-0.265625
		c0.27832-0.177734,0.527344-0.424805,0.74707-0.741211v-2.738281c-0.202148-0.295898-0.424805-0.504883-0.666016-0.625977
		c-0.242188-0.12207-0.516602-0.182617-0.823242-0.182617s-0.575195,0.055664-0.804688,0.166992
		s-0.422852,0.268555-0.577148,0.47168c-0.155273,0.203125-0.271484,0.447266-0.350586,0.730469
		c-0.078125,0.283203-0.117188,0.595703-0.117188,0.936523c0,0.771484,0.142578,1.339844,0.428711,1.703125
		C160.270142,20.911285,160.679321,21.092926,161.212524,21.092926z"/>
	<path class="st2" d="M166.473267,14.447418c0,0.0625-0.012695,0.121094-0.039062,0.174805s-0.05957,0.101562-0.101562,0.143555
		c-0.041992,0.041016-0.09082,0.074219-0.146484,0.098633s-0.114258,0.036133-0.176758,0.036133
		c-0.063477,0-0.12207-0.011719-0.177734-0.036133s-0.104492-0.057617-0.146484-0.098633
		c-0.041016-0.041992-0.074219-0.089844-0.098633-0.143555s-0.036133-0.112305-0.036133-0.174805
		s0.011719-0.123047,0.036133-0.180664c0.024414-0.056641,0.057617-0.106445,0.098633-0.148438
		c0.041992-0.041992,0.09082-0.074219,0.146484-0.098633s0.114258-0.037109,0.177734-0.037109
		c0.0625,0,0.121094,0.012695,0.176758,0.037109s0.104492,0.056641,0.146484,0.098633s0.075195,0.091797,0.101562,0.148438
		C166.460571,14.324371,166.473267,14.384918,166.473267,14.447418z M166.254517,16.236481v5.19043h-0.496094v-5.19043H166.254517z"
		/>
	<path class="st2" d="M170.526001,16.152496c0.291992,0,0.5625,0.050781,0.811523,0.151367
		c0.248047,0.101562,0.463867,0.248047,0.646484,0.441406c0.182617,0.192383,0.325195,0.429688,0.427734,0.711914
		c0.102539,0.28125,0.154297,0.605469,0.154297,0.969727c0,0.077148-0.011719,0.128906-0.03418,0.157227
		c-0.022461,0.027344-0.057617,0.041016-0.106445,0.041016h-3.746094v0.099609c0,0.389648,0.045898,0.732422,0.135742,1.027344
		c0.09082,0.295898,0.219727,0.543945,0.385742,0.743164c0.166992,0.200195,0.369141,0.350586,0.605469,0.452148
		c0.236328,0.100586,0.500977,0.150391,0.792969,0.150391c0.260742,0,0.487305-0.02832,0.677734-0.085938
		c0.191406-0.056641,0.352539-0.121094,0.483398-0.192383c0.129883-0.071289,0.233398-0.135742,0.30957-0.193359
		c0.077148-0.057617,0.132812-0.085938,0.166992-0.085938c0.045898,0,0.080078,0.017578,0.104492,0.051758l0.135742,0.166992
		c-0.083008,0.104492-0.193359,0.202148-0.331055,0.291992c-0.137695,0.09082-0.290039,0.167969-0.458984,0.232422
		s-0.349609,0.116211-0.542969,0.154297c-0.192383,0.038086-0.386719,0.056641-0.581055,0.056641
		c-0.355469,0-0.678711-0.061523-0.970703-0.18457c-0.291992-0.124023-0.542969-0.303711-0.751953-0.540039
		s-0.371094-0.526367-0.485352-0.868164c-0.114258-0.342773-0.170898-0.735352-0.170898-1.176758
		c0-0.37207,0.052734-0.71582,0.15918-1.030273c0.105469-0.314453,0.258789-0.585938,0.458984-0.813477
		c0.200195-0.228516,0.445312-0.40625,0.735352-0.535156S170.157837,16.152496,170.526001,16.152496z M170.533813,16.52359
		c-0.267578,0-0.506836,0.041016-0.71875,0.125c-0.211914,0.083008-0.394531,0.203125-0.549805,0.360352
		c-0.154297,0.15625-0.279297,0.34375-0.375,0.5625c-0.095703,0.219727-0.158203,0.464844-0.189453,0.736328h3.416992
		c0-0.27832-0.039062-0.52832-0.115234-0.749023s-0.183594-0.407227-0.323242-0.560547
		c-0.138672-0.15332-0.304688-0.270508-0.5-0.352539C170.984985,16.564606,170.770142,16.52359,170.533813,16.52359z"/>
	<path class="st2" d="M177.735962,14.447418c0,0.0625-0.013672,0.121094-0.040039,0.174805
		c-0.025391,0.053711-0.05957,0.101562-0.101562,0.143555c-0.041016,0.041016-0.089844,0.074219-0.145508,0.098633
		s-0.115234,0.036133-0.177734,0.036133s-0.12207-0.011719-0.177734-0.036133s-0.103516-0.057617-0.145508-0.098633
		c-0.041992-0.041992-0.075195-0.089844-0.099609-0.143555s-0.036133-0.112305-0.036133-0.174805
		s0.011719-0.123047,0.036133-0.180664c0.024414-0.056641,0.057617-0.106445,0.099609-0.148438s0.089844-0.074219,0.145508-0.098633
		s0.115234-0.037109,0.177734-0.037109s0.12207,0.012695,0.177734,0.037109s0.104492,0.056641,0.145508,0.098633
		c0.041992,0.041992,0.076172,0.091797,0.101562,0.148438C177.72229,14.324371,177.735962,14.384918,177.735962,14.447418z
		 M177.516235,16.236481v5.19043h-0.495117v-5.19043H177.516235z"/>
	<path class="st2" d="M179.832642,21.42691v-5.19043h0.270508c0.09082,0,0.142578,0.043945,0.157227,0.129883l0.046875,0.783203
		c0.236328-0.298828,0.511719-0.540039,0.826172-0.722656c0.31543-0.182617,0.665039-0.274414,1.051758-0.274414
		c0.285156,0,0.536133,0.045898,0.753906,0.135742c0.216797,0.09082,0.396484,0.22168,0.540039,0.391602
		c0.141602,0.170898,0.25,0.375977,0.323242,0.615234c0.072266,0.240234,0.109375,0.511719,0.109375,0.814453v3.317383h-0.496094
		v-3.317383c0-0.487305-0.111328-0.869141-0.333008-1.145508c-0.222656-0.276367-0.563477-0.415039-1.022461-0.415039
		c-0.341797,0-0.658203,0.087891-0.950195,0.263672s-0.552734,0.416992-0.782227,0.722656v3.891602H179.832642z"/>
	<path class="st2" d="M70.696907,33.94693c-0.085449,0-0.135254-0.044922-0.149414-0.135742l-0.052246-0.819336
		c-0.22998,0.313477-0.498535,0.5625-0.807129,0.746094c-0.308105,0.18457-0.653809,0.276367-1.036621,0.276367
		c-0.637207,0-1.134277-0.220703-1.491211-0.662109s-0.535645-1.104492-0.535645-1.987305
		c0-0.378906,0.049805-0.733398,0.148926-1.061523c0.099609-0.329102,0.245605-0.614258,0.438965-0.855469
		c0.193359-0.242188,0.430176-0.432617,0.710449-0.571289c0.280273-0.139648,0.603516-0.208984,0.96875-0.208984
		c0.352051,0,0.656738,0.06543,0.914062,0.195312c0.257812,0.130859,0.480957,0.321289,0.668945,0.571289v-3.077148h0.495605
		v7.589844H70.696907z M68.792122,33.612946c0.345215,0,0.656738-0.088867,0.935547-0.265625
		c0.27832-0.177734,0.527832-0.424805,0.74707-0.741211v-2.738281c-0.202148-0.295898-0.424316-0.504883-0.666016-0.625977
		c-0.242188-0.12207-0.516602-0.182617-0.823242-0.182617c-0.306152,0-0.574707,0.055664-0.804688,0.166992
		c-0.229492,0.111328-0.422363,0.268555-0.577148,0.47168s-0.271484,0.447266-0.350098,0.730469
		c-0.078125,0.283203-0.117676,0.595703-0.117676,0.936523c0,0.771484,0.143066,1.339844,0.428711,1.703125
		S68.259407,33.612946,68.792122,33.612946z"/>
	<path class="st2" d="M75.148567,28.672516c0.291992,0,0.5625,0.050781,0.811035,0.151367
		c0.248535,0.101562,0.464355,0.248047,0.646973,0.441406c0.182617,0.192383,0.325195,0.429688,0.427734,0.711914
		c0.102539,0.28125,0.153809,0.605469,0.153809,0.969727c0,0.077148-0.01123,0.128906-0.033691,0.157227
		c-0.022461,0.027344-0.058105,0.041016-0.106934,0.041016h-3.745605v0.099609c0,0.389648,0.04541,0.732422,0.135742,1.027344
		c0.090332,0.295898,0.219238,0.543945,0.385742,0.743164c0.166992,0.200195,0.368652,0.350586,0.605469,0.452148
		c0.236328,0.100586,0.500488,0.150391,0.792969,0.150391c0.260742,0,0.486816-0.02832,0.677734-0.085938
		c0.191406-0.056641,0.352539-0.121094,0.48291-0.192383s0.233887-0.135742,0.310059-0.193359
		c0.07666-0.057617,0.132324-0.085938,0.166992-0.085938c0.04541,0,0.080078,0.017578,0.104492,0.051758l0.135742,0.166992
		c-0.083496,0.104492-0.193848,0.202148-0.331543,0.291992c-0.137207,0.09082-0.290039,0.167969-0.458984,0.232422
		c-0.168457,0.064453-0.349609,0.116211-0.54248,0.154297s-0.386719,0.056641-0.581543,0.056641
		c-0.35498,0-0.678223-0.061523-0.970215-0.18457c-0.29248-0.124023-0.542969-0.303711-0.751953-0.540039
		c-0.209473-0.236328-0.371094-0.526367-0.485352-0.868164c-0.114258-0.342773-0.171387-0.735352-0.171387-1.176758
		c0-0.37207,0.053223-0.71582,0.15918-1.030273s0.259277-0.585938,0.458984-0.813477
		c0.200195-0.228516,0.445312-0.40625,0.73584-0.535156C74.450325,28.736969,74.779915,28.672516,75.148567,28.672516z
		 M75.15638,29.04361c-0.267578,0-0.507324,0.041016-0.71875,0.125c-0.211914,0.083008-0.39502,0.203125-0.549805,0.360352
		c-0.154297,0.15625-0.279297,0.34375-0.375,0.5625c-0.095703,0.219727-0.158691,0.464844-0.189941,0.736328h3.416992
		c0-0.27832-0.038574-0.52832-0.114746-0.749023c-0.07666-0.220703-0.184082-0.407227-0.323242-0.560547
		c-0.138672-0.15332-0.305176-0.270508-0.5-0.352539C75.607552,29.084625,75.39222,29.04361,75.15638,29.04361z"/>
	<path class="st2" d="M79.003548,33.94693V28.7565h0.260742c0.059082,0,0.101562,0.011719,0.12793,0.036133
		c0.025879,0.024414,0.040527,0.066406,0.043945,0.125977l0.041992,1.094727c0.166992-0.420898,0.389648-0.75,0.66748-0.988281
		c0.27832-0.238281,0.621094-0.357422,1.027832-0.357422c0.156738,0,0.300781,0.016602,0.433105,0.049805
		c0.131836,0.033203,0.257324,0.081055,0.375488,0.143555l-0.067871,0.34375c-0.010254,0.055664-0.04541,0.083984-0.104492,0.083984
		c-0.020508,0-0.050293-0.006836-0.088379-0.021484c-0.038574-0.013672-0.085938-0.029297-0.143555-0.046875
		c-0.057129-0.016602-0.12793-0.032227-0.211426-0.046875c-0.083496-0.013672-0.179199-0.020508-0.286621-0.020508
		c-0.393066,0-0.71582,0.12207-0.967773,0.365234c-0.252441,0.243164-0.456543,0.594727-0.612793,1.053711v3.375H79.003548z"/>
	<path class="st2" d="M89.942513,27.462555c-0.03125,0.05957-0.07666,0.088867-0.135742,0.088867
		c-0.04541,0-0.104004-0.032227-0.175293-0.09668C89.5597,27.390289,89.46302,27.319,89.34095,27.240875
		s-0.274902-0.150391-0.458008-0.216797c-0.183105-0.06543-0.408691-0.098633-0.677734-0.098633
		c-0.268555,0-0.504883,0.038086-0.708984,0.115234c-0.204102,0.076172-0.375,0.180664-0.512695,0.3125
		c-0.138184,0.131836-0.242676,0.285156-0.313965,0.458984c-0.071777,0.173828-0.107422,0.356445-0.107422,0.547852
		c0,0.25,0.053223,0.457031,0.15918,0.621094c0.106445,0.163086,0.246582,0.301758,0.42041,0.416992
		c0.174316,0.115234,0.37207,0.210938,0.593262,0.289062c0.221191,0.079102,0.448242,0.15625,0.681641,0.232422
		c0.233398,0.077148,0.460449,0.161133,0.681641,0.25293c0.221191,0.092773,0.418945,0.208008,0.592773,0.34668
		c0.174316,0.139648,0.314453,0.310547,0.42041,0.514648c0.106445,0.203125,0.159668,0.456055,0.159668,0.758789
		c0,0.30957-0.053223,0.600586-0.15918,0.874023c-0.105957,0.272461-0.260254,0.509766-0.461914,0.711914
		c-0.20166,0.201172-0.448242,0.360352-0.740723,0.477539c-0.291992,0.116211-0.625977,0.173828-1.001465,0.173828
		c-0.486816,0-0.905762-0.085938-1.257324-0.257812c-0.351074-0.171875-0.658691-0.407227-0.92334-0.707031l0.146484-0.229492
		c0.041504-0.051758,0.090332-0.078125,0.145996-0.078125c0.03125,0,0.071289,0.020508,0.120117,0.0625
		s0.10791,0.092773,0.177734,0.154297c0.069336,0.060547,0.152832,0.126953,0.250488,0.198242s0.210938,0.136719,0.339355,0.198242
		c0.128906,0.060547,0.276855,0.112305,0.444336,0.15332c0.166992,0.041992,0.356934,0.0625,0.569336,0.0625
		c0.29248,0,0.553711-0.043945,0.783691-0.132812c0.229492-0.088867,0.423828-0.208984,0.58252-0.362305
		c0.158203-0.15332,0.279297-0.334961,0.362793-0.544922c0.083496-0.210938,0.125488-0.435547,0.125488-0.675781
		c0-0.260742-0.053223-0.475586-0.15918-0.644531c-0.106445-0.167969-0.246582-0.30957-0.420898-0.421875
		c-0.173828-0.113281-0.371582-0.208008-0.592773-0.285156c-0.221191-0.076172-0.448242-0.150391-0.681641-0.223633
		s-0.460449-0.155273-0.681641-0.245117c-0.221191-0.09082-0.418945-0.206055-0.593262-0.347656
		c-0.173828-0.140625-0.313965-0.316406-0.42041-0.526367c-0.105957-0.209961-0.15918-0.473633-0.15918-0.790039
		c0-0.24707,0.046875-0.485352,0.141113-0.714844c0.09375-0.229492,0.231445-0.432617,0.412598-0.607422
		c0.181152-0.175781,0.404785-0.316406,0.671387-0.422852c0.266113-0.106445,0.570312-0.15918,0.911621-0.15918
		c0.382812,0,0.726562,0.060547,1.03125,0.182617s0.58252,0.307617,0.833008,0.557617L89.942513,27.462555z"/>
	<path class="st2" d="M95.466438,29.44986c-0.01709,0.017578-0.033691,0.032227-0.049316,0.044922
		c-0.015625,0.011719-0.037598,0.018555-0.06543,0.018555c-0.034668,0-0.08252-0.024414-0.143066-0.071289
		c-0.061035-0.046875-0.14209-0.097656-0.242676-0.15332c-0.101074-0.055664-0.227051-0.107422-0.378418-0.154297
		s-0.334473-0.070312-0.550293-0.070312c-0.298828,0-0.564453,0.052734-0.79541,0.15918
		c-0.231445,0.106445-0.42627,0.257812-0.584473,0.456055s-0.278809,0.438477-0.362305,0.720703
		c-0.083496,0.28125-0.125488,0.597656-0.125488,0.949219c0,0.365234,0.042969,0.688477,0.12793,0.969727
		c0.085449,0.282227,0.206055,0.519531,0.362793,0.712891c0.15625,0.192383,0.345703,0.339844,0.568359,0.44043
		s0.469727,0.151367,0.740723,0.151367c0.250488,0,0.459961-0.029297,0.628906-0.088867
		c0.168457-0.05957,0.307617-0.123047,0.416992-0.193359c0.109863-0.069336,0.196777-0.133789,0.260742-0.192383
		c0.064453-0.05957,0.115723-0.088867,0.154297-0.088867c0.044922,0,0.07959,0.017578,0.104004,0.051758l0.135742,0.166992
		c-0.080078,0.104492-0.180664,0.202148-0.302734,0.291992c-0.121582,0.09082-0.258789,0.168945-0.412109,0.235352
		c-0.152832,0.06543-0.318848,0.117188-0.498047,0.15332c-0.179199,0.037109-0.366211,0.054688-0.560547,0.054688
		c-0.330566,0-0.632324-0.05957-0.905273-0.179688s-0.507812-0.293945-0.704102-0.521484
		c-0.196777-0.227539-0.349609-0.506836-0.458984-0.836914c-0.109863-0.331055-0.164551-0.706055-0.164551-1.126953
		c0-0.396484,0.052246-0.758789,0.156738-1.084961c0.104004-0.327148,0.256348-0.608398,0.456055-0.845703
		c0.200195-0.236328,0.445312-0.419922,0.73584-0.549805c0.290039-0.130859,0.623535-0.196289,0.999023-0.196289
		c0.336914,0,0.637207,0.054688,0.899902,0.162109c0.262207,0.107422,0.491211,0.253906,0.686035,0.438477L95.466438,29.44986z"/>
	<path class="st2" d="M97.276985,33.94693v-7.589844h0.495605v3.286133c0.239746-0.295898,0.513672-0.53125,0.821289-0.707031
		c0.308105-0.175781,0.652832-0.263672,1.035645-0.263672c0.285156,0,0.536621,0.045898,0.753906,0.135742
		c0.217285,0.09082,0.396973,0.22168,0.540039,0.391602c0.14209,0.170898,0.25,0.375977,0.323242,0.615234
		c0.072754,0.240234,0.109375,0.511719,0.109375,0.814453v3.317383h-0.495605v-3.317383
		c0-0.487305-0.111328-0.869141-0.333496-1.145508c-0.222656-0.276367-0.563477-0.415039-1.022461-0.415039
		c-0.341309,0-0.657715,0.087891-0.949707,0.263672s-0.552734,0.416992-0.782227,0.722656v3.891602H97.276985z"/>
	<path class="st2" d="M102.602669,28.7565h0.380859c0.048828,0,0.088867,0.012695,0.120117,0.039062
		s0.051758,0.054688,0.0625,0.085938l1.309082,4.094727c0.024414,0.080078,0.043457,0.157227,0.057617,0.229492
		c0.013672,0.073242,0.027832,0.146484,0.041504,0.219727c0.017578-0.073242,0.036621-0.146484,0.057617-0.219727
		c0.020996-0.072266,0.044922-0.149414,0.072754-0.229492l1.393066-4.130859c0.024414-0.077148,0.073242-0.115234,0.145996-0.115234
		h0.203613c0.076172,0,0.126953,0.038086,0.151367,0.115234l1.371582,4.130859
		c0.052246,0.157227,0.094238,0.308594,0.125488,0.454102c0.013672-0.073242,0.028809-0.146484,0.044434-0.22168
		c0.015625-0.074219,0.037109-0.152344,0.064941-0.232422l1.313965-4.094727c0.02832-0.083008,0.086914-0.125,0.177734-0.125
		h0.365234l-1.736816,5.19043h-0.365234c-0.055664,0-0.095703-0.036133-0.120117-0.109375l-1.423828-4.214844
		c-0.017578-0.052734-0.033203-0.104492-0.046875-0.157227c-0.01416-0.051758-0.026367-0.103516-0.036621-0.15625
		c-0.010742,0.052734-0.021973,0.104492-0.03418,0.15625c-0.012207,0.052734-0.026855,0.104492-0.043945,0.157227
		l-1.439941,4.214844c-0.020996,0.073242-0.0625,0.109375-0.125488,0.109375h-0.349121L102.602669,28.7565z"/>
	<path class="st2" d="M113.458626,28.672516c0.291992,0,0.5625,0.050781,0.810547,0.151367
		c0.249023,0.101562,0.464844,0.248047,0.647461,0.441406c0.182617,0.192383,0.325195,0.429688,0.427734,0.711914
		c0.102539,0.28125,0.15332,0.605469,0.15332,0.969727c0,0.077148-0.010742,0.128906-0.033203,0.157227
		c-0.022461,0.027344-0.058594,0.041016-0.107422,0.041016h-3.745117v0.099609c0,0.389648,0.044922,0.732422,0.135742,1.027344
		c0.089844,0.295898,0.21875,0.543945,0.385742,0.743164c0.166992,0.200195,0.368164,0.350586,0.605469,0.452148
		c0.236328,0.100586,0.5,0.150391,0.792969,0.150391c0.260742,0,0.486328-0.02832,0.677734-0.085938
		c0.191406-0.056641,0.352539-0.121094,0.482422-0.192383c0.130859-0.071289,0.234375-0.135742,0.310547-0.193359
		s0.131836-0.085938,0.166992-0.085938c0.044922,0,0.080078,0.017578,0.104492,0.051758l0.135742,0.166992
		c-0.083984,0.104492-0.194336,0.202148-0.332031,0.291992c-0.136719,0.09082-0.290039,0.167969-0.458984,0.232422
		c-0.167969,0.064453-0.349609,0.116211-0.541992,0.154297c-0.193359,0.038086-0.386719,0.056641-0.582031,0.056641
		c-0.354492,0-0.677734-0.061523-0.969727-0.18457c-0.292969-0.124023-0.542969-0.303711-0.751953-0.540039
		c-0.209961-0.236328-0.371094-0.526367-0.485352-0.868164c-0.114258-0.342773-0.171875-0.735352-0.171875-1.176758
		c0-0.37207,0.053711-0.71582,0.15918-1.030273c0.106445-0.314453,0.259766-0.585938,0.458984-0.813477
		c0.200195-0.228516,0.445312-0.40625,0.736328-0.535156C112.760384,28.736969,113.089485,28.672516,113.458626,28.672516z
		 M113.466438,29.04361c-0.267578,0-0.507812,0.041016-0.71875,0.125c-0.211914,0.083008-0.395508,0.203125-0.549805,0.360352
		c-0.154297,0.15625-0.279297,0.34375-0.375,0.5625c-0.095703,0.219727-0.15918,0.464844-0.19043,0.736328h3.416992
		c0-0.27832-0.038086-0.52832-0.114258-0.749023c-0.077148-0.220703-0.18457-0.407227-0.323242-0.560547
		s-0.305664-0.270508-0.5-0.352539C113.91761,29.084625,113.70179,29.04361,113.466438,29.04361z"/>
	<path class="st2" d="M118.174446,26.967438c0,0.0625-0.013672,0.121094-0.040039,0.174805
		c-0.025391,0.053711-0.05957,0.101562-0.101562,0.143555c-0.041016,0.041016-0.089844,0.074219-0.145508,0.098633
		s-0.115234,0.036133-0.177734,0.036133s-0.12207-0.011719-0.177734-0.036133s-0.103516-0.057617-0.145508-0.098633
		c-0.041992-0.041992-0.075195-0.089844-0.099609-0.143555s-0.036133-0.112305-0.036133-0.174805
		s0.011719-0.123047,0.036133-0.180664c0.024414-0.056641,0.057617-0.106445,0.099609-0.148438s0.089844-0.074219,0.145508-0.098633
		s0.115234-0.037109,0.177734-0.037109s0.12207,0.012695,0.177734,0.037109s0.104492,0.056641,0.145508,0.098633
		c0.041992,0.041992,0.076172,0.091797,0.101562,0.148438C118.160774,26.844391,118.174446,26.904938,118.174446,26.967438z
		 M117.95472,28.7565v5.19043h-0.495117V28.7565H117.95472z"/>
	<path class="st2" d="M123.734993,28.965485c0,0.072266-0.024414,0.138672-0.073242,0.198242l-3.25,4.391602h3.192383v0.391602
		h-3.791992v-0.198242c0-0.058594,0.025391-0.123047,0.078125-0.193359l3.259766-4.407227h-3.166016V28.7565h3.750977V28.965485z"/>
	<path class="st2" d="M129.373657,34.029938c-0.351562,0-0.625-0.09668-0.819336-0.291992
		c-0.194336-0.194336-0.291992-0.495117-0.291992-0.902344v-3.546875h-0.746086c-0.038086,0-0.069336-0.010742-0.09375-0.03125
		c-0.024414-0.021484-0.036133-0.050781-0.036133-0.088867V28.97525l0.886711-0.0625l0.123047-1.856445
		c0.003906-0.032227,0.016602-0.05957,0.039062-0.083984s0.052734-0.036133,0.09082-0.036133h0.231445v1.982422h1.632812v0.370117
		h-1.632812v3.520508c0,0.143555,0.018555,0.265625,0.054688,0.368164c0.037109,0.102539,0.086914,0.1875,0.151367,0.25293
		c0.064453,0.066406,0.140625,0.115234,0.227539,0.146484s0.180664,0.046875,0.28125,0.046875
		c0.125,0,0.233398-0.018555,0.323242-0.054688c0.09082-0.037109,0.168945-0.077148,0.235352-0.120117
		c0.06543-0.043945,0.120117-0.083984,0.161133-0.120117c0.041992-0.036133,0.075195-0.054688,0.099609-0.054688
		c0.027344,0,0.055664,0.017578,0.083008,0.051758l0.135742,0.219727c-0.131836,0.145508-0.299805,0.262695-0.50293,0.351562
		C129.803345,33.985992,129.592407,34.029938,129.373657,34.029938z"/>
	<path class="st2" d="M133.290649,35.615875c-0.020508,0.048828-0.047852,0.088867-0.081055,0.120117
		c-0.032227,0.03125-0.080078,0.046875-0.142578,0.046875h-0.355469l0.913086-2.029297l-2.196289-4.99707h0.412109
		c0.052734,0,0.09375,0.012695,0.123047,0.039062s0.050781,0.054688,0.06543,0.085938l1.74707,4.038086
		c0.020508,0.051758,0.039062,0.104492,0.054688,0.15918c0.015625,0.053711,0.030273,0.108398,0.044922,0.164062
		c0.016602-0.055664,0.035156-0.110352,0.054688-0.164062c0.018555-0.054688,0.039062-0.107422,0.05957-0.15918l1.726562-4.038086
		c0.017578-0.038086,0.041992-0.068359,0.073242-0.09082s0.066406-0.03418,0.104492-0.03418h0.380859L133.290649,35.615875z"/>
	<path class="st2" d="M137.720337,35.782867V28.7565h0.270508c0.045898,0,0.082031,0.009766,0.110352,0.02832
		c0.027344,0.019531,0.042969,0.053711,0.046875,0.101562l0.046875,0.803711c0.229492-0.3125,0.498047-0.561523,0.805664-0.746094
		c0.307617-0.183594,0.65332-0.276367,1.035156-0.276367c0.640625,0,1.137695,0.220703,1.492188,0.663086
		c0.354492,0.441406,0.532227,1.103516,0.532227,1.987305c0,0.378906-0.049805,0.732422-0.148438,1.061523
		c-0.099609,0.328125-0.245117,0.613281-0.435547,0.855469c-0.191406,0.241211-0.427734,0.431641-0.707031,0.571289
		c-0.280273,0.138672-0.602539,0.208008-0.967773,0.208008c-0.354492,0-0.661133-0.063477-0.917969-0.192383
		c-0.257812-0.128906-0.480469-0.320312-0.667969-0.574219v2.535156H137.720337z M139.895142,29.069
		c-0.34375,0-0.65625,0.089844-0.936523,0.269531c-0.279297,0.178711-0.527344,0.427734-0.743164,0.748047v2.722656
		c0.198242,0.299805,0.417969,0.509766,0.660156,0.631836c0.241211,0.12207,0.516602,0.182617,0.826172,0.182617
		c0.306641,0,0.574219-0.055664,0.803711-0.166992s0.421875-0.268555,0.576172-0.472656
		c0.155273-0.203125,0.271484-0.446289,0.349609-0.729492c0.078125-0.28418,0.117188-0.595703,0.117188-0.936523
		c0-0.772461-0.141602-1.339844-0.424805-1.703125S140.430298,29.069,139.895142,29.069z"/>
	<path class="st2" d="M144.642212,26.967438c0,0.0625-0.012695,0.121094-0.039062,0.174805s-0.05957,0.101562-0.101562,0.143555
		c-0.041992,0.041016-0.09082,0.074219-0.146484,0.098633s-0.114258,0.036133-0.176758,0.036133
		c-0.063477,0-0.12207-0.011719-0.177734-0.036133s-0.104492-0.057617-0.146484-0.098633
		c-0.041016-0.041992-0.074219-0.089844-0.098633-0.143555s-0.036133-0.112305-0.036133-0.174805
		s0.011719-0.123047,0.036133-0.180664c0.024414-0.056641,0.057617-0.106445,0.098633-0.148438
		c0.041992-0.041992,0.09082-0.074219,0.146484-0.098633s0.114258-0.037109,0.177734-0.037109
		c0.0625,0,0.121094,0.012695,0.176758,0.037109s0.104492,0.056641,0.146484,0.098633s0.075195,0.091797,0.101562,0.148438
		C144.629517,26.844391,144.642212,26.904938,144.642212,26.967438z M144.423462,28.7565v5.19043h-0.496094V28.7565H144.423462z"/>
	<path class="st2" d="M149.59729,29.402985c-0.024414,0.048828-0.0625,0.073242-0.114258,0.073242
		c-0.038086,0-0.087891-0.021484-0.148438-0.06543c-0.061523-0.042969-0.141602-0.091797-0.240234-0.145508
		c-0.099609-0.053711-0.220703-0.102539-0.365234-0.146484c-0.144531-0.042969-0.321289-0.06543-0.529297-0.06543
		c-0.1875,0-0.359375,0.027344-0.513672,0.081055c-0.155273,0.053711-0.287109,0.125977-0.396484,0.21582
		c-0.110352,0.089844-0.195312,0.195312-0.255859,0.314453c-0.060547,0.120117-0.091797,0.246094-0.091797,0.37793
		c0,0.163086,0.041992,0.297852,0.125977,0.405273c0.083008,0.107422,0.192383,0.199219,0.328125,0.276367
		c0.135742,0.076172,0.290039,0.141602,0.461914,0.197266s0.348633,0.111328,0.529297,0.166992s0.357422,0.117188,0.529297,0.18457
		c0.172852,0.068359,0.326172,0.152344,0.461914,0.25293c0.135742,0.101562,0.245117,0.224609,0.329102,0.371094
		c0.083008,0.145508,0.125,0.323242,0.125,0.532227c0,0.225586-0.041016,0.436523-0.123047,0.630859
		c-0.081055,0.194336-0.200195,0.363281-0.354492,0.505859s-0.344727,0.255859-0.571289,0.338867
		c-0.225586,0.083984-0.483398,0.125-0.771484,0.125c-0.365234,0-0.680664-0.057617-0.944336-0.173828
		c-0.264648-0.117188-0.500977-0.269531-0.709961-0.457031l0.120117-0.177734c0.017578-0.027344,0.036133-0.047852,0.057617-0.0625
		c0.020508-0.013672,0.049805-0.020508,0.088867-0.020508c0.044922,0,0.100586,0.02832,0.166992,0.083008
		c0.06543,0.056641,0.151367,0.116211,0.257812,0.180664s0.238281,0.124023,0.396484,0.179688s0.353516,0.083984,0.586914,0.083984
		c0.21875,0,0.412109-0.03125,0.579102-0.091797s0.305664-0.143555,0.416992-0.248047s0.195312-0.226562,0.25293-0.367188
		s0.085938-0.290039,0.085938-0.446289c0-0.173828-0.041016-0.318359-0.125-0.432617
		c-0.083008-0.115234-0.192383-0.212891-0.328125-0.291992c-0.135742-0.080078-0.290039-0.148438-0.461914-0.204102
		s-0.349609-0.111328-0.532227-0.166992s-0.360352-0.116211-0.532227-0.182617c-0.171875-0.06543-0.326172-0.149414-0.461914-0.25
		c-0.134766-0.100586-0.245117-0.223633-0.328125-0.368164c-0.083984-0.143555-0.125-0.324219-0.125-0.540039
		c0-0.183594,0.040039-0.361328,0.120117-0.53125c0.079102-0.170898,0.193359-0.320312,0.34082-0.449219
		c0.148438-0.128906,0.328125-0.231445,0.540039-0.307617s0.450195-0.115234,0.714844-0.115234
		c0.316406,0,0.597656,0.045898,0.842773,0.137695s0.469727,0.232422,0.675781,0.420898L149.59729,29.402985z"/>
	<path class="st2" d="M155.121704,29.44986c-0.016602,0.017578-0.033203,0.032227-0.048828,0.044922
		c-0.015625,0.011719-0.038086,0.018555-0.06543,0.018555c-0.035156,0-0.083008-0.024414-0.143555-0.071289
		s-0.141602-0.097656-0.242188-0.15332c-0.101562-0.055664-0.227539-0.107422-0.378906-0.154297
		s-0.333984-0.070312-0.549805-0.070312c-0.298828,0-0.564453,0.052734-0.795898,0.15918s-0.425781,0.257812-0.583984,0.456055
		s-0.279297,0.438477-0.362305,0.720703c-0.083984,0.28125-0.125977,0.597656-0.125977,0.949219
		c0,0.365234,0.042969,0.688477,0.12793,0.969727c0.085938,0.282227,0.206055,0.519531,0.363281,0.712891
		c0.15625,0.192383,0.345703,0.339844,0.568359,0.44043s0.469727,0.151367,0.740234,0.151367
		c0.250977,0,0.459961-0.029297,0.628906-0.088867s0.307617-0.123047,0.416992-0.193359
		c0.110352-0.069336,0.197266-0.133789,0.260742-0.192383c0.064453-0.05957,0.116211-0.088867,0.154297-0.088867
		c0.044922,0,0.080078,0.017578,0.104492,0.051758l0.135742,0.166992c-0.080078,0.104492-0.180664,0.202148-0.302734,0.291992
		c-0.12207,0.09082-0.258789,0.168945-0.412109,0.235352c-0.15332,0.06543-0.319336,0.117188-0.498047,0.15332
		c-0.179688,0.037109-0.366211,0.054688-0.560547,0.054688c-0.331055,0-0.632812-0.05957-0.905273-0.179688
		c-0.273438-0.120117-0.507812-0.293945-0.704102-0.521484c-0.197266-0.227539-0.349609-0.506836-0.458984-0.836914
		c-0.110352-0.331055-0.165039-0.706055-0.165039-1.126953c0-0.396484,0.052734-0.758789,0.157227-1.084961
		c0.103516-0.327148,0.255859-0.608398,0.456055-0.845703c0.200195-0.236328,0.445312-0.419922,0.735352-0.549805
		c0.290039-0.130859,0.624023-0.196289,0.999023-0.196289c0.336914,0,0.637695,0.054688,0.900391,0.162109
		c0.261719,0.107422,0.491211,0.253906,0.685547,0.438477L155.121704,29.44986z"/>
	<path class="st2" d="M156.932251,33.94693v-7.589844h0.495117v3.286133c0.240234-0.295898,0.513672-0.53125,0.821289-0.707031
		c0.308594-0.175781,0.65332-0.263672,1.036133-0.263672c0.285156,0,0.536133,0.045898,0.753906,0.135742
		c0.216797,0.09082,0.396484,0.22168,0.540039,0.391602c0.141602,0.170898,0.25,0.375977,0.323242,0.615234
		c0.072266,0.240234,0.109375,0.511719,0.109375,0.814453v3.317383h-0.496094v-3.317383
		c0-0.487305-0.111328-0.869141-0.333008-1.145508c-0.222656-0.276367-0.563477-0.415039-1.022461-0.415039
		c-0.341797,0-0.658203,0.087891-0.950195,0.263672s-0.552734,0.416992-0.782227,0.722656v3.891602H156.932251z"/>
	<path class="st2" d="M165.012329,28.672516c0.291992,0,0.5625,0.050781,0.811523,0.151367
		c0.248047,0.101562,0.463867,0.248047,0.646484,0.441406c0.182617,0.192383,0.325195,0.429688,0.427734,0.711914
		c0.102539,0.28125,0.154297,0.605469,0.154297,0.969727c0,0.077148-0.011719,0.128906-0.03418,0.157227
		c-0.022461,0.027344-0.057617,0.041016-0.106445,0.041016h-3.746094v0.099609c0,0.389648,0.045898,0.732422,0.135742,1.027344
		c0.09082,0.295898,0.219727,0.543945,0.385742,0.743164c0.166992,0.200195,0.369141,0.350586,0.605469,0.452148
		c0.236328,0.100586,0.500977,0.150391,0.792969,0.150391c0.260742,0,0.487305-0.02832,0.677734-0.085938
		c0.191406-0.056641,0.352539-0.121094,0.483398-0.192383c0.129883-0.071289,0.233398-0.135742,0.30957-0.193359
		c0.077148-0.057617,0.132812-0.085938,0.166992-0.085938c0.045898,0,0.080078,0.017578,0.104492,0.051758l0.135742,0.166992
		c-0.083008,0.104492-0.193359,0.202148-0.331055,0.291992c-0.137695,0.09082-0.290039,0.167969-0.458984,0.232422
		s-0.349609,0.116211-0.542969,0.154297c-0.192383,0.038086-0.386719,0.056641-0.581055,0.056641
		c-0.355469,0-0.678711-0.061523-0.970703-0.18457c-0.291992-0.124023-0.542969-0.303711-0.751953-0.540039
		s-0.371094-0.526367-0.485352-0.868164c-0.114258-0.342773-0.170898-0.735352-0.170898-1.176758
		c0-0.37207,0.052734-0.71582,0.15918-1.030273c0.105469-0.314453,0.258789-0.585938,0.458984-0.813477
		c0.200195-0.228516,0.445312-0.40625,0.735352-0.535156S164.644165,28.672516,165.012329,28.672516z M165.020142,29.04361
		c-0.267578,0-0.506836,0.041016-0.71875,0.125c-0.211914,0.083008-0.394531,0.203125-0.549805,0.360352
		c-0.154297,0.15625-0.279297,0.34375-0.375,0.5625c-0.095703,0.219727-0.158203,0.464844-0.189453,0.736328h3.416992
		c0-0.27832-0.039062-0.52832-0.115234-0.749023s-0.183594-0.407227-0.323242-0.560547
		c-0.138672-0.15332-0.304688-0.270508-0.5-0.352539C165.471313,29.084625,165.25647,29.04361,165.020142,29.04361z"/>
	<path class="st2" d="M175.184204,27.462555c-0.03125,0.05957-0.076172,0.088867-0.135742,0.088867
		c-0.044922,0-0.103516-0.032227-0.174805-0.09668c-0.072266-0.064453-0.168945-0.135742-0.291016-0.213867
		s-0.274414-0.150391-0.458008-0.216797c-0.182617-0.06543-0.408203-0.098633-0.677734-0.098633
		c-0.268555,0-0.504883,0.038086-0.708984,0.115234c-0.204102,0.076172-0.375,0.180664-0.512695,0.3125
		s-0.242188,0.285156-0.313477,0.458984c-0.072266,0.173828-0.107422,0.356445-0.107422,0.547852
		c0,0.25,0.052734,0.457031,0.15918,0.621094c0.106445,0.163086,0.246094,0.301758,0.419922,0.416992
		c0.174805,0.115234,0.37207,0.210938,0.59375,0.289062c0.220703,0.079102,0.448242,0.15625,0.681641,0.232422
		c0.233398,0.077148,0.459961,0.161133,0.681641,0.25293c0.220703,0.092773,0.418945,0.208008,0.592773,0.34668
		c0.173828,0.139648,0.314453,0.310547,0.419922,0.514648c0.106445,0.203125,0.160156,0.456055,0.160156,0.758789
		c0,0.30957-0.053711,0.600586-0.15918,0.874023c-0.106445,0.272461-0.260742,0.509766-0.461914,0.711914
		c-0.202148,0.201172-0.448242,0.360352-0.741211,0.477539c-0.291992,0.116211-0.625977,0.173828-1.000977,0.173828
		c-0.487305,0-0.90625-0.085938-1.257812-0.257812c-0.350586-0.171875-0.658203-0.407227-0.922852-0.707031l0.146484-0.229492
		c0.041016-0.051758,0.089844-0.078125,0.145508-0.078125c0.03125,0,0.071289,0.020508,0.120117,0.0625
		s0.108398,0.092773,0.177734,0.154297c0.069336,0.060547,0.15332,0.126953,0.250977,0.198242s0.210938,0.136719,0.338867,0.198242
		c0.128906,0.060547,0.277344,0.112305,0.444336,0.15332c0.166992,0.041992,0.357422,0.0625,0.569336,0.0625
		c0.292969,0,0.553711-0.043945,0.78418-0.132812c0.229492-0.088867,0.423828-0.208984,0.582031-0.362305
		s0.279297-0.334961,0.363281-0.544922c0.083008-0.210938,0.125-0.435547,0.125-0.675781
		c0-0.260742-0.052734-0.475586-0.15918-0.644531c-0.106445-0.167969-0.246094-0.30957-0.420898-0.421875
		c-0.173828-0.113281-0.371094-0.208008-0.592773-0.285156c-0.220703-0.076172-0.448242-0.150391-0.681641-0.223633
		s-0.459961-0.155273-0.681641-0.245117c-0.220703-0.09082-0.418945-0.206055-0.592773-0.347656
		c-0.173828-0.140625-0.314453-0.316406-0.420898-0.526367c-0.105469-0.209961-0.15918-0.473633-0.15918-0.790039
		c0-0.24707,0.046875-0.485352,0.141602-0.714844c0.09375-0.229492,0.231445-0.432617,0.412109-0.607422
		c0.181641-0.175781,0.405273-0.316406,0.671875-0.422852c0.265625-0.106445,0.570312-0.15918,0.911133-0.15918
		c0.382812,0,0.726562,0.060547,1.03125,0.182617s0.583008,0.307617,0.833008,0.557617L175.184204,27.462555z"/>
	<path class="st2" d="M177.291626,35.782867V28.7565h0.271484c0.044922,0,0.082031,0.009766,0.109375,0.02832
		c0.02832,0.019531,0.043945,0.053711,0.046875,0.101562l0.046875,0.803711c0.229492-0.3125,0.498047-0.561523,0.806641-0.746094
		c0.307617-0.183594,0.652344-0.276367,1.035156-0.276367c0.639648,0,1.136719,0.220703,1.492188,0.663086
		c0.354492,0.441406,0.53125,1.103516,0.53125,1.987305c0,0.378906-0.048828,0.732422-0.148438,1.061523
		c-0.098633,0.328125-0.244141,0.613281-0.435547,0.855469c-0.191406,0.241211-0.426758,0.431641-0.707031,0.571289
		c-0.279297,0.138672-0.602539,0.208008-0.967773,0.208008c-0.354492,0-0.660156-0.063477-0.917969-0.192383
		c-0.256836-0.128906-0.479492-0.320312-0.666992-0.574219v2.535156H177.291626z M179.467407,29.069
		c-0.344727,0-0.657227,0.089844-0.936523,0.269531c-0.280273,0.178711-0.52832,0.427734-0.743164,0.748047v2.722656
		c0.198242,0.299805,0.417969,0.509766,0.65918,0.631836c0.242188,0.12207,0.517578,0.182617,0.827148,0.182617
		c0.305664,0,0.574219-0.055664,0.803711-0.166992s0.420898-0.268555,0.576172-0.472656
		c0.154297-0.203125,0.271484-0.446289,0.349609-0.729492c0.078125-0.28418,0.117188-0.595703,0.117188-0.936523
		c0-0.772461-0.141602-1.339844-0.424805-1.703125C180.411743,29.251617,180.002563,29.069,179.467407,29.069z"/>
	<path class="st2" d="M184.214478,26.967438c0,0.0625-0.013672,0.121094-0.040039,0.174805
		c-0.025391,0.053711-0.05957,0.101562-0.101562,0.143555c-0.041016,0.041016-0.089844,0.074219-0.145508,0.098633
		s-0.115234,0.036133-0.177734,0.036133s-0.12207-0.011719-0.177734-0.036133s-0.103516-0.057617-0.145508-0.098633
		c-0.041992-0.041992-0.075195-0.089844-0.099609-0.143555s-0.036133-0.112305-0.036133-0.174805
		s0.011719-0.123047,0.036133-0.180664c0.024414-0.056641,0.057617-0.106445,0.099609-0.148438s0.089844-0.074219,0.145508-0.098633
		s0.115234-0.037109,0.177734-0.037109s0.12207,0.012695,0.177734,0.037109s0.104492,0.056641,0.145508,0.098633
		c0.041992,0.041992,0.076172,0.091797,0.101562,0.148438C184.200806,26.844391,184.214478,26.904938,184.214478,26.967438z
		 M183.994751,28.7565v5.19043h-0.495117V28.7565H183.994751z"/>
	<path class="st2" d="M188.268188,28.672516c0.291992,0,0.5625,0.050781,0.810547,0.151367
		c0.249023,0.101562,0.464844,0.248047,0.647461,0.441406c0.182617,0.192383,0.324219,0.429688,0.427734,0.711914
		c0.102539,0.28125,0.15332,0.605469,0.15332,0.969727c0,0.077148-0.010742,0.128906-0.03418,0.157227
		c-0.022461,0.027344-0.057617,0.041016-0.106445,0.041016h-3.746094v0.099609c0,0.389648,0.045898,0.732422,0.135742,1.027344
		c0.09082,0.295898,0.219727,0.543945,0.386719,0.743164c0.166016,0.200195,0.368164,0.350586,0.604492,0.452148
		c0.236328,0.100586,0.500977,0.150391,0.792969,0.150391c0.260742,0,0.487305-0.02832,0.678711-0.085938
		c0.191406-0.056641,0.351562-0.121094,0.482422-0.192383c0.129883-0.071289,0.233398-0.135742,0.310547-0.193359
		c0.076172-0.057617,0.131836-0.085938,0.166992-0.085938c0.044922,0,0.080078,0.017578,0.103516,0.051758l0.135742,0.166992
		c-0.083008,0.104492-0.193359,0.202148-0.331055,0.291992c-0.137695,0.09082-0.290039,0.167969-0.458984,0.232422
		s-0.349609,0.116211-0.541992,0.154297c-0.193359,0.038086-0.387695,0.056641-0.582031,0.056641
		c-0.354492,0-0.678711-0.061523-0.970703-0.18457c-0.291992-0.124023-0.542969-0.303711-0.751953-0.540039
		s-0.371094-0.526367-0.485352-0.868164c-0.114258-0.342773-0.170898-0.735352-0.170898-1.176758
		c0-0.37207,0.052734-0.71582,0.15918-1.030273c0.105469-0.314453,0.258789-0.585938,0.458984-0.813477
		c0.200195-0.228516,0.445312-0.40625,0.735352-0.535156C187.569946,28.736969,187.899048,28.672516,188.268188,28.672516z
		 M188.275024,29.04361c-0.266602,0-0.506836,0.041016-0.71875,0.125c-0.210938,0.083008-0.394531,0.203125-0.548828,0.360352
		c-0.154297,0.15625-0.279297,0.34375-0.375,0.5625c-0.095703,0.219727-0.15918,0.464844-0.19043,0.736328h3.416992
		c0-0.27832-0.038086-0.52832-0.115234-0.749023c-0.076172-0.220703-0.183594-0.407227-0.322266-0.560547
		c-0.139648-0.15332-0.305664-0.270508-0.5-0.352539C188.727173,29.084625,188.511353,29.04361,188.275024,29.04361z"/>
	<path class="st2" d="M192.763306,26.357086v7.589844h-0.495117v-7.589844H192.763306z"/>
	<path class="st2" d="M198.392212,33.94693c-0.103516,0-0.167969-0.048828-0.192383-0.146484l-0.073242-0.662109
		c-0.142578,0.139648-0.28418,0.264648-0.424805,0.375977c-0.141602,0.111328-0.288086,0.205078-0.441406,0.28125
		s-0.318359,0.134766-0.495117,0.174805c-0.177734,0.040039-0.37207,0.05957-0.584961,0.05957
		c-0.176758,0-0.348633-0.025391-0.515625-0.078125c-0.166992-0.051758-0.31543-0.131836-0.443359-0.239258
		c-0.128906-0.108398-0.232422-0.246094-0.310547-0.415039s-0.117188-0.371094-0.117188-0.607422
		c0-0.219727,0.0625-0.422852,0.1875-0.610352c0.125-0.188477,0.320312-0.351562,0.586914-0.490234
		c0.265625-0.139648,0.608398-0.250977,1.027344-0.333984c0.418945-0.083984,0.922852-0.132812,1.510742-0.146484v-0.541992
		c0-0.480469-0.103516-0.849609-0.310547-1.109375c-0.207031-0.258789-0.513672-0.388672-0.920898-0.388672
		c-0.25,0-0.463867,0.035156-0.638672,0.104492c-0.175781,0.070312-0.325195,0.146484-0.446289,0.229492
		c-0.12207,0.083984-0.220703,0.160156-0.297852,0.229492c-0.076172,0.070312-0.140625,0.104492-0.192383,0.104492
		c-0.070312,0-0.12207-0.03125-0.157227-0.09375l-0.087891-0.151367c0.270508-0.271484,0.555664-0.476562,0.855469-0.615234
		c0.298828-0.139648,0.637695-0.208984,1.016602-0.208984c0.27832,0,0.522461,0.044922,0.730469,0.132812
		c0.208984,0.088867,0.381836,0.21582,0.519531,0.380859c0.136719,0.165039,0.240234,0.365234,0.310547,0.600586
		c0.069336,0.234375,0.103516,0.496094,0.103516,0.785156v3.379883H198.392212z M196.306274,33.670563
		c0.201172,0,0.386719-0.021484,0.555664-0.06543c0.167969-0.042969,0.325195-0.104492,0.46875-0.182617
		c0.144531-0.078125,0.279297-0.170898,0.404297-0.279297c0.125977-0.107422,0.249023-0.223633,0.371094-0.349609v-1.350586
		c-0.494141,0.013672-0.918945,0.051758-1.275391,0.112305c-0.357422,0.060547-0.650391,0.143555-0.881836,0.248047
		c-0.231445,0.103516-0.402344,0.228516-0.511719,0.37207c-0.109375,0.144531-0.164062,0.30957-0.164062,0.493164
		c0,0.173828,0.02832,0.324219,0.085938,0.451172s0.132812,0.231445,0.227539,0.313477
		c0.09375,0.082031,0.203125,0.141602,0.328125,0.179688S196.170532,33.670563,196.306274,33.670563z"/>
	<path class="st2" d="M200.635376,33.94693V28.7565h0.260742c0.05957,0,0.102539,0.011719,0.12793,0.036133
		c0.026367,0.024414,0.041016,0.066406,0.044922,0.125977l0.041016,1.094727c0.166992-0.420898,0.389648-0.75,0.667969-0.988281
		s0.621094-0.357422,1.02832-0.357422c0.15625,0,0.300781,0.016602,0.432617,0.049805s0.256836,0.081055,0.375977,0.143555
		l-0.068359,0.34375c-0.010742,0.055664-0.044922,0.083984-0.104492,0.083984c-0.020508,0-0.049805-0.006836-0.088867-0.021484
		c-0.038086-0.013672-0.085938-0.029297-0.142578-0.046875c-0.057617-0.016602-0.12793-0.032227-0.211914-0.046875
		c-0.083008-0.013672-0.178711-0.020508-0.287109-0.020508c-0.392578,0-0.714844,0.12207-0.967773,0.365234
		c-0.251953,0.243164-0.456055,0.594727-0.612305,1.053711v3.375H200.635376z"/>
	<path class="st2" d="M206.671509,34.029938c-0.351562,0-0.624023-0.09668-0.819336-0.291992
		c-0.194336-0.194336-0.291992-0.495117-0.291992-0.902344v-3.546875h-0.746094c-0.038086,0-0.069336-0.010742-0.09375-0.03125
		c-0.024414-0.021484-0.036133-0.050781-0.036133-0.088867V28.97525l0.886719-0.0625l0.124023-1.856445
		c0.00293-0.032227,0.015625-0.05957,0.038086-0.083984s0.052734-0.036133,0.09082-0.036133h0.232422v1.982422h1.632812v0.370117
		h-1.632812v3.520508c0,0.143555,0.017578,0.265625,0.054688,0.368164c0.036133,0.102539,0.086914,0.1875,0.151367,0.25293
		c0.064453,0.066406,0.139648,0.115234,0.226562,0.146484s0.180664,0.046875,0.28125,0.046875
		c0.125977,0,0.233398-0.018555,0.324219-0.054688c0.089844-0.037109,0.167969-0.077148,0.234375-0.120117
		c0.066406-0.043945,0.120117-0.083984,0.162109-0.120117c0.041016-0.036133,0.074219-0.054688,0.098633-0.054688
		c0.02832,0,0.055664,0.017578,0.083984,0.051758l0.134766,0.219727c-0.131836,0.145508-0.299805,0.262695-0.50293,0.351562
		S206.890259,34.029938,206.671509,34.029938z"/>
	<path class="st2" d="M70.328743,46.467438c-0.104492,0-0.168945-0.048828-0.193359-0.146484l-0.072754-0.662109
		c-0.142578,0.139648-0.28418,0.264648-0.425293,0.375977c-0.140625,0.111328-0.287598,0.205078-0.440918,0.28125
		c-0.152832,0.076172-0.317871,0.134766-0.495117,0.174805c-0.177734,0.040039-0.372559,0.05957-0.584473,0.05957
		c-0.177246,0-0.349609-0.025391-0.516602-0.078125c-0.166992-0.051758-0.314453-0.131836-0.443359-0.239258
		c-0.128418-0.108398-0.231934-0.246094-0.310059-0.415039c-0.078613-0.168945-0.117676-0.371094-0.117676-0.607422
		c0-0.219727,0.0625-0.422852,0.187988-0.610352c0.125-0.188477,0.320801-0.351562,0.586914-0.490234
		c0.266113-0.139648,0.608398-0.250977,1.027344-0.333984c0.418945-0.083984,0.922363-0.132812,1.510254-0.146484v-0.541992
		c0-0.480469-0.103516-0.849609-0.310059-1.109375c-0.207031-0.258789-0.51416-0.388672-0.920898-0.388672
		c-0.250488,0-0.463379,0.035156-0.63916,0.104492c-0.175781,0.070312-0.324219,0.146484-0.445801,0.229492
		c-0.12207,0.083984-0.221191,0.160156-0.297363,0.229492c-0.07666,0.070312-0.141113,0.104492-0.193359,0.104492
		c-0.069336,0-0.121582-0.03125-0.15625-0.09375l-0.088867-0.151367c0.271484-0.271484,0.556641-0.476562,0.855469-0.615234
		c0.299316-0.139648,0.638184-0.208984,1.017578-0.208984c0.277832,0,0.521484,0.044922,0.72998,0.132812
		c0.208984,0.088867,0.381836,0.21582,0.519043,0.380859c0.137695,0.165039,0.241211,0.365234,0.310547,0.600586
		c0.069336,0.234375,0.104492,0.496094,0.104492,0.785156v3.379883H70.328743z M68.241829,46.191071
		c0.20166,0,0.387207-0.021484,0.555664-0.06543c0.168945-0.042969,0.325195-0.104492,0.469727-0.182617
		c0.144043-0.078125,0.278809-0.170898,0.404297-0.279297c0.125-0.107422,0.248535-0.223633,0.370117-0.349609v-1.350586
		c-0.493652,0.013672-0.918945,0.051758-1.275391,0.112305s-0.650391,0.143555-0.881348,0.248047
		c-0.231445,0.103516-0.401855,0.228516-0.51123,0.37207c-0.109863,0.144531-0.164551,0.30957-0.164551,0.493164
		c0,0.173828,0.028809,0.324219,0.085938,0.451172c0.057617,0.126953,0.133301,0.231445,0.227051,0.313477
		s0.203613,0.141602,0.328613,0.179688S68.106575,46.191071,68.241829,46.191071z"/>
	<path class="st2" d="M72.937141,41.277008v3.317383c0,0.487305,0.111328,0.869141,0.334961,1.145508
		c0.223145,0.276367,0.563477,0.414062,1.020508,0.414062c0.338379,0,0.654297-0.085938,0.947266-0.257812
		s0.556641-0.411133,0.790527-0.716797v-3.902344h0.495605v5.19043h-0.273438c-0.096191,0-0.145996-0.044922-0.149414-0.135742
		l-0.046875-0.771484c-0.240234,0.298828-0.518066,0.539062-0.833496,0.719727
		c-0.314941,0.180664-0.666016,0.270508-1.052246,0.270508c-0.289062,0-0.541504-0.044922-0.757812-0.134766
		c-0.21582-0.09082-0.39502-0.22168-0.537598-0.391602c-0.143066-0.169922-0.250977-0.375977-0.324219-0.615234
		c-0.073242-0.240234-0.109375-0.511719-0.109375-0.814453v-3.317383H72.937141z"/>
	<path class="st2" d="M78.888802,46.467438V41.819l-0.730469-0.046875c-0.100586-0.006836-0.150879-0.049805-0.150879-0.129883
		v-0.203125h0.881348v-0.658203c0-0.294922,0.038086-0.554688,0.114746-0.779297s0.184082-0.411133,0.323242-0.560547
		s0.307129-0.261719,0.503418-0.336914c0.196777-0.074219,0.413086-0.112305,0.649414-0.112305
		c0.10791,0,0.216797,0.009766,0.326172,0.029297c0.109863,0.018555,0.206055,0.045898,0.289551,0.080078l-0.015625,0.240234
		c-0.003418,0.048828-0.036621,0.073242-0.099121,0.073242c-0.041504,0-0.098145-0.004883-0.169434-0.015625
		s-0.15918-0.015625-0.263672-0.015625c-0.17041,0-0.327637,0.025391-0.47168,0.075195
		c-0.144531,0.050781-0.269043,0.131836-0.373047,0.243164c-0.104492,0.111328-0.185547,0.255859-0.242676,0.435547
		c-0.057617,0.178711-0.085938,0.398438-0.085938,0.660156v0.641602h1.68457v0.370117h-1.674316v4.658203H78.888802z"/>
	<path class="st2" d="M86.984505,41.193024c0.291992,0,0.5625,0.050781,0.811035,0.151367
		c0.248535,0.101562,0.464355,0.248047,0.646973,0.441406c0.182617,0.192383,0.325195,0.429688,0.427734,0.711914
		c0.102539,0.28125,0.153809,0.605469,0.153809,0.969727c0,0.077148-0.01123,0.128906-0.033691,0.157227
		c-0.022461,0.027344-0.058105,0.041016-0.106934,0.041016h-3.745605v0.099609c0,0.389648,0.04541,0.732422,0.135742,1.027344
		c0.090332,0.295898,0.219238,0.543945,0.385742,0.743164c0.166992,0.200195,0.368652,0.350586,0.605469,0.452148
		c0.236328,0.100586,0.500488,0.150391,0.792969,0.150391c0.260742,0,0.486816-0.02832,0.677734-0.085938
		c0.191406-0.056641,0.352539-0.121094,0.48291-0.192383s0.233887-0.135742,0.310059-0.193359
		c0.07666-0.057617,0.132324-0.085938,0.166992-0.085938c0.04541,0,0.080078,0.017578,0.104492,0.051758l0.135742,0.166992
		c-0.083496,0.104492-0.193848,0.202148-0.331543,0.291992c-0.137207,0.09082-0.290039,0.167969-0.458984,0.232422
		c-0.168457,0.064453-0.349609,0.116211-0.54248,0.154297s-0.386719,0.056641-0.581543,0.056641
		c-0.35498,0-0.678223-0.061523-0.970215-0.18457c-0.29248-0.124023-0.542969-0.303711-0.751953-0.540039
		c-0.209473-0.236328-0.371094-0.526367-0.485352-0.868164c-0.114258-0.342773-0.171387-0.735352-0.171387-1.176758
		c0-0.37207,0.053223-0.71582,0.15918-1.030273s0.259277-0.585938,0.458984-0.813477
		c0.200195-0.228516,0.445312-0.40625,0.73584-0.535156C86.286263,41.257477,86.615852,41.193024,86.984505,41.193024z
		 M86.992317,41.564117c-0.267578,0-0.507324,0.041016-0.71875,0.125c-0.211914,0.083008-0.39502,0.203125-0.549805,0.360352
		c-0.154297,0.15625-0.279297,0.34375-0.375,0.5625c-0.095703,0.219727-0.158691,0.464844-0.189941,0.736328h3.416992
		c0-0.27832-0.038574-0.52832-0.114746-0.749023c-0.07666-0.220703-0.184082-0.407227-0.323242-0.560547
		c-0.138672-0.15332-0.305176-0.270508-0.5-0.352539C87.443489,41.605133,87.228157,41.564117,86.992317,41.564117z"/>
	<path class="st2" d="M91.700813,39.487946c0,0.0625-0.013184,0.121094-0.039551,0.174805
		c-0.025879,0.053711-0.05957,0.101562-0.101562,0.143555c-0.041504,0.041016-0.090332,0.074219-0.145996,0.098633
		s-0.114746,0.036133-0.177246,0.036133c-0.062988,0-0.12207-0.011719-0.177734-0.036133s-0.104004-0.057617-0.145996-0.098633
		c-0.041504-0.041992-0.074707-0.089844-0.099121-0.143555s-0.036133-0.112305-0.036133-0.174805
		s0.011719-0.123047,0.036133-0.180664c0.024414-0.056641,0.057617-0.106445,0.099121-0.148438
		c0.041992-0.041992,0.090332-0.074219,0.145996-0.098633s0.114746-0.037109,0.177734-0.037109
		c0.0625,0,0.121582,0.012695,0.177246,0.037109s0.104492,0.056641,0.145996,0.098633
		c0.041992,0.041992,0.075684,0.091797,0.101562,0.148438C91.68763,39.364899,91.700813,39.425446,91.700813,39.487946z
		 M91.481575,41.277008v5.19043H90.98597v-5.19043H91.481575z"/>
	<path class="st2" d="M93.797493,46.467438v-5.19043h0.270996c0.090332,0,0.142578,0.043945,0.156738,0.129883l0.046875,0.783203
		c0.236328-0.298828,0.512207-0.540039,0.82666-0.722656c0.314941-0.182617,0.665039-0.274414,1.05127-0.274414
		c0.285156,0,0.536621,0.045898,0.753906,0.135742c0.217285,0.09082,0.396973,0.22168,0.540039,0.391602
		c0.14209,0.170898,0.25,0.375977,0.323242,0.615234c0.072754,0.240234,0.109375,0.511719,0.109375,0.814453v3.317383h-0.495605
		v-3.317383c0-0.487305-0.111328-0.869141-0.333496-1.145508c-0.222656-0.276367-0.563477-0.415039-1.022461-0.415039
		c-0.341309,0-0.657715,0.087891-0.949707,0.263672s-0.552734,0.416992-0.782227,0.722656v3.891602H93.797493z"/>
	<path class="st2" d="M99.921516,46.467438v-7.589844h0.495605v3.286133c0.239746-0.295898,0.513672-0.53125,0.821289-0.707031
		c0.308105-0.175781,0.652832-0.263672,1.035645-0.263672c0.285156,0,0.536621,0.045898,0.753906,0.135742
		c0.217285,0.09082,0.396973,0.22168,0.540039,0.391602c0.14209,0.170898,0.25,0.375977,0.323242,0.615234
		c0.072754,0.240234,0.109375,0.511719,0.109375,0.814453v3.317383h-0.495605v-3.317383
		c0-0.487305-0.111328-0.869141-0.333496-1.145508c-0.222656-0.276367-0.563477-0.415039-1.022461-0.415039
		c-0.341309,0-0.657715,0.087891-0.949707,0.263672s-0.552734,0.416992-0.782227,0.722656v3.891602H99.921516z"/>
	<path class="st2" d="M106.410774,41.277008v3.317383c0,0.487305,0.111328,0.869141,0.334961,1.145508
		c0.223145,0.276367,0.563477,0.414062,1.020508,0.414062c0.338379,0,0.654297-0.085938,0.947266-0.257812
		s0.556641-0.411133,0.790039-0.716797v-3.902344h0.496094v5.19043h-0.273438c-0.09668,0-0.146484-0.044922-0.149414-0.135742
		l-0.046875-0.771484c-0.240234,0.298828-0.518066,0.539062-0.833496,0.719727
		c-0.314941,0.180664-0.666016,0.270508-1.052246,0.270508c-0.289062,0-0.541504-0.044922-0.757812-0.134766
		c-0.21582-0.09082-0.39502-0.22168-0.537598-0.391602c-0.143066-0.169922-0.250977-0.375977-0.324219-0.615234
		c-0.073242-0.240234-0.109375-0.511719-0.109375-0.814453v-3.317383H106.410774z"/>
	<path class="st2" d="M112.169563,46.467438v-5.19043h0.270508c0.09082,0,0.142578,0.043945,0.157227,0.129883l0.046875,0.783203
		c0.236328-0.298828,0.511719-0.540039,0.826172-0.722656c0.31543-0.182617,0.665039-0.274414,1.051758-0.274414
		c0.285156,0,0.536133,0.045898,0.753906,0.135742c0.216797,0.09082,0.396484,0.22168,0.540039,0.391602
		c0.141602,0.170898,0.25,0.375977,0.323242,0.615234c0.072266,0.240234,0.109375,0.511719,0.109375,0.814453v3.317383h-0.496094
		v-3.317383c0-0.487305-0.111328-0.869141-0.333008-1.145508c-0.222656-0.276367-0.563477-0.415039-1.022461-0.415039
		c-0.341797,0-0.658203,0.087891-0.950195,0.263672s-0.552734,0.416992-0.782227,0.722656v3.891602H112.169563z"/>
	<path class="st2" d="M121.974251,46.467438c-0.085938,0-0.135742-0.044922-0.149414-0.135742l-0.052734-0.819336
		c-0.229492,0.313477-0.498047,0.5625-0.806641,0.746094c-0.308594,0.18457-0.654297,0.276367-1.037109,0.276367
		c-0.636719,0-1.133789-0.220703-1.491211-0.662109c-0.356445-0.441406-0.535156-1.104492-0.535156-1.987305
		c0-0.378906,0.049805-0.733398,0.148438-1.061523c0.099609-0.329102,0.246094-0.614258,0.439453-0.855469
		c0.193359-0.242188,0.429688-0.432617,0.709961-0.571289c0.280273-0.139648,0.603516-0.208984,0.96875-0.208984
		c0.352539,0,0.657227,0.06543,0.914062,0.195312c0.257812,0.130859,0.481445,0.321289,0.668945,0.571289v-3.077148h0.496094
		v7.589844H121.974251z M120.068977,46.133453c0.345703,0,0.657227-0.088867,0.935547-0.265625
		c0.27832-0.177734,0.52832-0.424805,0.74707-0.741211v-2.738281c-0.202148-0.295898-0.423828-0.504883-0.666016-0.625977
		c-0.242188-0.12207-0.516602-0.182617-0.823242-0.182617c-0.305664,0-0.574219,0.055664-0.804688,0.166992
		c-0.229492,0.111328-0.421875,0.268555-0.577148,0.47168c-0.154297,0.203125-0.271484,0.447266-0.349609,0.730469
		s-0.118164,0.595703-0.118164,0.936523c0,0.771484,0.143555,1.339844,0.428711,1.703125
		C119.127571,45.951813,119.536751,46.133453,120.068977,46.133453z"/>
	<path class="st2" d="M126.425423,41.193024c0.291992,0,0.5625,0.050781,0.811523,0.151367
		c0.248047,0.101562,0.463867,0.248047,0.646484,0.441406c0.18261,0.192383,0.325188,0.429688,0.427727,0.711914
		c0.102539,0.28125,0.154297,0.605469,0.154297,0.969727c0,0.077148-0.011719,0.128906-0.03418,0.157227
		c-0.022461,0.027344-0.057617,0.041016-0.106445,0.041016h-3.746086v0.099609c0,0.389648,0.045898,0.732422,0.135742,1.027344
		c0.09082,0.295898,0.219727,0.543945,0.385742,0.743164c0.166992,0.200195,0.369141,0.350586,0.605469,0.452148
		c0.236328,0.100586,0.500977,0.150391,0.792969,0.150391c0.260742,0,0.487305-0.02832,0.677734-0.085938
		c0.191406-0.056641,0.352539-0.121094,0.483398-0.192383c0.129883-0.071289,0.233398-0.135742,0.30957-0.193359
		c0.077141-0.057617,0.132805-0.085938,0.166985-0.085938c0.045898,0,0.080078,0.017578,0.104492,0.051758l0.135742,0.166992
		c-0.083008,0.104492-0.193359,0.202148-0.331055,0.291992c-0.137688,0.09082-0.290031,0.167969-0.458977,0.232422
		s-0.349609,0.116211-0.542969,0.154297c-0.192383,0.038086-0.386719,0.056641-0.581055,0.056641
		c-0.355469,0-0.678711-0.061523-0.970703-0.18457c-0.291992-0.124023-0.542969-0.303711-0.751953-0.540039
		s-0.371094-0.526367-0.485352-0.868164c-0.114258-0.342773-0.170898-0.735352-0.170898-1.176758
		c0-0.37207,0.052734-0.71582,0.15918-1.030273c0.105469-0.314453,0.258789-0.585938,0.458984-0.813477
		c0.200195-0.228516,0.445312-0.40625,0.735352-0.535156S126.057259,41.193024,126.425423,41.193024z M126.433235,41.564117
		c-0.267578,0-0.506836,0.041016-0.71875,0.125c-0.211914,0.083008-0.394531,0.203125-0.549805,0.360352
		c-0.154297,0.15625-0.279297,0.34375-0.375,0.5625c-0.095703,0.219727-0.158203,0.464844-0.189453,0.736328h3.416985
		c0-0.27832-0.039055-0.52832-0.115227-0.749023s-0.183594-0.407227-0.323242-0.560547
		c-0.138672-0.15332-0.304688-0.270508-0.5-0.352539C126.884407,41.605133,126.669563,41.564117,126.433235,41.564117z"/>
	<path class="st2" d="M130.280884,46.467438v-5.19043h0.260742c0.05957,0,0.101562,0.011719,0.12793,0.036133
		s0.041016,0.066406,0.043945,0.125977l0.041992,1.094727c0.166992-0.420898,0.389648-0.75,0.667969-0.988281
		s0.621094-0.357422,1.027344-0.357422c0.157227,0,0.300781,0.016602,0.433594,0.049805
		c0.131836,0.033203,0.256836,0.081055,0.375,0.143555l-0.067383,0.34375c-0.010742,0.055664-0.045898,0.083984-0.104492,0.083984
		c-0.020508,0-0.050781-0.006836-0.088867-0.021484c-0.038086-0.013672-0.085938-0.029297-0.143555-0.046875
		c-0.056641-0.016602-0.12793-0.032227-0.210938-0.046875c-0.083984-0.013672-0.179688-0.020508-0.287109-0.020508
		c-0.392578,0-0.71582,0.12207-0.967773,0.365234s-0.456055,0.594727-0.612305,1.053711v3.375H130.280884z"/>
	<path class="st2" d="M136.31604,46.550446c-0.351562,0-0.624023-0.09668-0.818359-0.291992
		c-0.195312-0.194336-0.292969-0.495117-0.292969-0.902344v-3.546875h-0.745117c-0.039062,0-0.070312-0.010742-0.094727-0.03125
		c-0.024414-0.021484-0.036133-0.050781-0.036133-0.088867v-0.193359l0.886719-0.0625l0.124023-1.856445
		c0.00293-0.032227,0.016602-0.05957,0.039062-0.083984c0.021484-0.024414,0.051758-0.036133,0.089844-0.036133h0.232422v1.982422
		h1.632812v0.370117h-1.632812v3.520508c0,0.143555,0.018555,0.265625,0.054688,0.368164s0.086914,0.1875,0.151367,0.25293
		c0.064453,0.066406,0.139648,0.115234,0.226562,0.146484s0.180664,0.046875,0.282227,0.046875
		c0.125,0,0.232422-0.018555,0.323242-0.054688c0.089844-0.037109,0.168945-0.077148,0.234375-0.120117
		c0.066406-0.043945,0.120117-0.083984,0.162109-0.120117s0.074219-0.054688,0.098633-0.054688
		c0.02832,0,0.055664,0.017578,0.083984,0.051758l0.135742,0.219727c-0.132812,0.145508-0.299805,0.262695-0.503906,0.351562
		C136.746704,46.5065,136.535767,46.550446,136.31604,46.550446z"/>
	<path class="st2" d="M138.804321,46.066071c0-0.066406,0.012695-0.128906,0.037109-0.188477
		c0.023438-0.058594,0.057617-0.110352,0.101562-0.15332c0.042969-0.043945,0.09375-0.078125,0.151367-0.104492
		c0.056641-0.026367,0.120117-0.039062,0.19043-0.039062c0.06543,0,0.12793,0.012695,0.1875,0.039062
		c0.058594,0.026367,0.110352,0.060547,0.15332,0.104492c0.043945,0.042969,0.079102,0.094727,0.104492,0.15332
		c0.026367,0.05957,0.039062,0.12207,0.039062,0.188477c0,0.069336-0.012695,0.132812-0.039062,0.19043
		c-0.025391,0.056641-0.060547,0.107422-0.104492,0.151367c-0.042969,0.042969-0.094727,0.077148-0.15332,0.101562
		c-0.05957,0.024414-0.12207,0.036133-0.1875,0.036133c-0.135742,0-0.25-0.045898-0.341797-0.137695
		C138.85022,46.315094,138.804321,46.201813,138.804321,46.066071z"/>
</g>
</svg>
